<?xml version="1.0" encoding="UTF-8" standalone="no"?>
<!DOCTYPE svg PUBLIC "-//W3C//DTD SVG 1.1//EN"
 "http://www.w3.org/Graphics/SVG/1.1/DTD/svg11.dtd">
<!-- Generated by graphviz version 5.0.1 (20220820.1526)
 -->
<!-- Title: BloomFilter::contains Pages: 1 -->
<svg width="361pt" height="64pt"
 viewBox="0.00 0.00 361.00 64.00" xmlns="http://www.w3.org/2000/svg" xmlns:xlink="http://www.w3.org/1999/xlink">
<g id="graph0" class="graph" transform="scale(1 1) rotate(0) translate(4 60)">
<title>BloomFilter::contains</title>
<!-- Node1 -->
<g id="node1" class="node">
<title>Node1</title>
<g id="a_node1"><a xlink:title="Check element function for Bloom filter.">
<polygon fill="#999999" stroke="#666666" points="109,-37 0,-37 0,-18 109,-18 109,-37"/>
<text text-anchor="middle" x="54.5" y="-25" font-family="Helvetica,sans-Serif" font-size="10.00">BloomFilter::contains</text>
</a>
</g>
</g>
<!-- Node2 -->
<g id="node2" class="node">
<title>Node2</title>
<g id="a_node2"><a xlink:href="../../d6/d09/class_bitset.html#a0bfb11045c04611233dc6e3b42484a19" target="_top" xlink:title="Doest bitset contains element x.">
<polygon fill="white" stroke="#666666" points="230,-56 145,-56 145,-37 230,-37 230,-56"/>
<text text-anchor="middle" x="187.5" y="-44" font-family="Helvetica,sans-Serif" font-size="10.00">Bitset::contains</text>
</a>
</g>
</g>
<!-- Node1&#45;&gt;Node2 -->
<g id="edge1" class="edge">
<title>Node1&#45;&gt;Node2</title>
<path fill="none" stroke="#63b8ff" d="M109.16,-35.28C117.6,-36.51 126.31,-37.77 134.71,-38.99"/>
<polygon fill="#63b8ff" stroke="#63b8ff" points="134.35,-42.47 144.75,-40.45 135.36,-35.55 134.35,-42.47"/>
</g>
<!-- Node4 -->
<g id="node4" class="node">
<title>Node4</title>
<g id="a_node4"><a xlink:href="../../d6/d09/class_bitset.html#a77a52b97b7ff4120ad92e1ed2a0d531d" target="_top" xlink:title="Returns size of inner array.">
<polygon fill="white" stroke="#666666" points="220.5,-19 154.5,-19 154.5,0 220.5,0 220.5,-19"/>
<text text-anchor="middle" x="187.5" y="-7" font-family="Helvetica,sans-Serif" font-size="10.00">Bitset::size</text>
</a>
</g>
</g>
<!-- Node1&#45;&gt;Node4 -->
<g id="edge3" class="edge">
<title>Node1&#45;&gt;Node4</title>
<path fill="none" stroke="#63b8ff" d="M109.16,-20.13C120.85,-18.52 133.05,-16.84 144.22,-15.31"/>
<polygon fill="#63b8ff" stroke="#63b8ff" points="144.71,-18.77 154.14,-13.95 143.76,-11.84 144.71,-18.77"/>
</g>
<!-- Node3 -->
<g id="node3" class="node">
<title>Node3</title>
<g id="a_node3"><a target="_blank" xlink:href="http://en.cppreference.com/w/cpp/container/vector/size.html#" xlink:title=" ">
<polygon fill="white" stroke="#666666" points="353,-37 266,-37 266,-18 353,-18 353,-37"/>
<text text-anchor="middle" x="309.5" y="-25" font-family="Helvetica,sans-Serif" font-size="10.00">std::vector::size</text>
</a>
</g>
</g>
<!-- Node2&#45;&gt;Node3 -->
<g id="edge2" class="edge">
<title>Node2&#45;&gt;Node3</title>
<path fill="none" stroke="#63b8ff" d="M230.13,-39.91C238.4,-38.6 247.19,-37.21 255.78,-35.85"/>
<polygon fill="#63b8ff" stroke="#63b8ff" points="256.39,-39.29 265.72,-34.27 255.29,-32.38 256.39,-39.29"/>
</g>
<!-- Node4&#45;&gt;Node3 -->
<g id="edge4" class="edge">
<title>Node4&#45;&gt;Node3</title>
<path fill="none" stroke="#63b8ff" d="M220.66,-14.32C231.51,-15.95 243.91,-17.81 255.92,-19.61"/>
<polygon fill="#63b8ff" stroke="#63b8ff" points="255.46,-23.08 265.87,-21.1 256.5,-16.16 255.46,-23.08"/>
</g>
</g>
</svg>
