<?xml version="1.0" encoding="UTF-8" standalone="no"?>
<!DOCTYPE svg PUBLIC "-//W3C//DTD SVG 1.1//EN"
 "http://www.w3.org/Graphics/SVG/1.1/DTD/svg11.dtd">
<!-- Generated by graphviz version 5.0.0 (20220707.1540)
 -->
<!-- Title: BloomFilter::add Pages: 1 -->
<svg width="329pt" height="66pt"
 viewBox="0.00 0.00 329.00 66.00" xmlns="http://www.w3.org/2000/svg" xmlns:xlink="http://www.w3.org/1999/xlink">
<g id="graph0" class="graph" transform="scale(1 1) rotate(0) translate(4 62)">
<title>BloomFilter::add</title>
<polygon fill="white" stroke="transparent" points="-4,4 -4,-62 325,-62 325,4 -4,4"/>
<!-- Node1 -->
<g id="node1" class="node">
<title>Node1</title>
<g id="a_node1"><a xlink:title="Add function for Bloom filter.">
<polygon fill="#bfbfbf" stroke="black" points="0,-19.5 0,-38.5 88,-38.5 88,-19.5 0,-19.5"/>
<text text-anchor="middle" x="44" y="-26.5" font-family="Helvetica,sans-Serif" font-size="10.00">BloomFilter::add</text>
</a>
</g>
</g>
<!-- Node2 -->
<g id="node2" class="node">
<title>Node2</title>
<g id="a_node2"><a xlink:href="../../d6/d09/class_bitset.html#a60e5462233fa5852f1e4e4593d41a601" target="_top" xlink:title="Turn bit on position x to 1s.">
<polygon fill="white" stroke="black" points="125,-38.5 125,-57.5 189,-57.5 189,-38.5 125,-38.5"/>
<text text-anchor="middle" x="157" y="-45.5" font-family="Helvetica,sans-Serif" font-size="10.00">Bitset::add</text>
</a>
</g>
</g>
<!-- Node1&#45;&gt;Node2 -->
<g id="edge1" class="edge">
<title>Node1&#45;&gt;Node2</title>
<path fill="none" stroke="midnightblue" d="M88.23,-36.4C96.98,-37.9 106.16,-39.47 114.84,-40.95"/>
<polygon fill="midnightblue" stroke="midnightblue" points="114.29,-44.41 124.74,-42.65 115.47,-37.51 114.29,-44.41"/>
</g>
<!-- Node5 -->
<g id="node5" class="node">
<title>Node5</title>
<g id="a_node5"><a xlink:href="../../d6/d09/class_bitset.html#a77a52b97b7ff4120ad92e1ed2a0d531d" target="_top" xlink:title="Returns size of inner array.">
<polygon fill="white" stroke="black" points="124,-0.5 124,-19.5 190,-19.5 190,-0.5 124,-0.5"/>
<text text-anchor="middle" x="157" y="-7.5" font-family="Helvetica,sans-Serif" font-size="10.00">Bitset::size</text>
</a>
</g>
</g>
<!-- Node1&#45;&gt;Node5 -->
<g id="edge4" class="edge">
<title>Node1&#45;&gt;Node5</title>
<path fill="none" stroke="midnightblue" d="M88.23,-21.6C96.63,-20.16 105.42,-18.66 113.78,-17.23"/>
<polygon fill="midnightblue" stroke="midnightblue" points="114.45,-20.66 123.71,-15.53 113.27,-13.76 114.45,-20.66"/>
</g>
<!-- Node3 -->
<g id="node3" class="node">
<title>Node3</title>
<g id="a_node3"><a target="_blank" xlink:href="http://en.cppreference.com/w/cpp/container/vector/resize.html#" xlink:title=" ">
<polygon fill="white" stroke="black" points="226,-38.5 226,-57.5 321,-57.5 321,-38.5 226,-38.5"/>
<text text-anchor="middle" x="273.5" y="-45.5" font-family="Helvetica,sans-Serif" font-size="10.00">std::vector::resize</text>
</a>
</g>
</g>
<!-- Node2&#45;&gt;Node3 -->
<g id="edge2" class="edge">
<title>Node2&#45;&gt;Node3</title>
<path fill="none" stroke="midnightblue" d="M189.29,-48C197.47,-48 206.54,-48 215.6,-48"/>
<polygon fill="midnightblue" stroke="midnightblue" points="215.78,-51.5 225.78,-48 215.78,-44.5 215.78,-51.5"/>
</g>
<!-- Node4 -->
<g id="node4" class="node">
<title>Node4</title>
<g id="a_node4"><a target="_blank" xlink:href="http://en.cppreference.com/w/cpp/container/vector/size.html#" xlink:title=" ">
<polygon fill="white" stroke="black" points="230,-0.5 230,-19.5 317,-19.5 317,-0.5 230,-0.5"/>
<text text-anchor="middle" x="273.5" y="-7.5" font-family="Helvetica,sans-Serif" font-size="10.00">std::vector::size</text>
</a>
</g>
</g>
<!-- Node2&#45;&gt;Node4 -->
<g id="edge3" class="edge">
<title>Node2&#45;&gt;Node4</title>
<path fill="none" stroke="midnightblue" d="M186.89,-38.41C201.13,-33.69 218.5,-27.92 233.86,-22.82"/>
<polygon fill="midnightblue" stroke="midnightblue" points="235.23,-26.06 243.62,-19.59 233.02,-19.41 235.23,-26.06"/>
</g>
<!-- Node5&#45;&gt;Node4 -->
<g id="edge5" class="edge">
<title>Node5&#45;&gt;Node4</title>
<path fill="none" stroke="midnightblue" d="M190.2,-10C199.43,-10 209.74,-10 219.85,-10"/>
<polygon fill="midnightblue" stroke="midnightblue" points="219.86,-13.5 229.86,-10 219.86,-6.5 219.86,-13.5"/>
</g>
</g>
</svg>
