<?xml version="1.0" encoding="UTF-8" standalone="no"?>
<!DOCTYPE svg PUBLIC "-//W3C//DTD SVG 1.1//EN"
 "http://www.w3.org/Graphics/SVG/1.1/DTD/svg11.dtd">
<!-- Generated by graphviz version 3.0.0 (20220226.1711)
 -->
<!-- Title: BloomFilter::add Pages: 1 -->
<svg width="327pt" height="66pt"
 viewBox="0.00 0.00 327.00 66.00" xmlns="http://www.w3.org/2000/svg" xmlns:xlink="http://www.w3.org/1999/xlink">
<g id="graph0" class="graph" transform="scale(1 1) rotate(0) translate(4 62)">
<title>BloomFilter::add</title>
<polygon fill="white" stroke="transparent" points="-4,4 -4,-62 323,-62 323,4 -4,4"/>
<!-- Node1 -->
<g id="node1" class="node">
<title>Node1</title>
<g id="a_node1"><a xlink:title="Add function for Bloom filter.">
<polygon fill="#bfbfbf" stroke="black" points="0,-19.5 0,-38.5 88,-38.5 88,-19.5 0,-19.5"/>
<text text-anchor="middle" x="44" y="-26.5" font-family="Helvetica,sans-Serif" font-size="10.00">BloomFilter::add</text>
</a>
</g>
</g>
<!-- Node2 -->
<g id="node2" class="node">
<title>Node2</title>
<g id="a_node2"><a xlink:href="../../d6/d09/class_bitset.html#a60e5462233fa5852f1e4e4593d41a601" target="_top" xlink:title="Turn bit on position x to 1s.">
<polygon fill="white" stroke="black" points="124,-19.5 124,-38.5 188,-38.5 188,-19.5 124,-19.5"/>
<text text-anchor="middle" x="156" y="-26.5" font-family="Helvetica,sans-Serif" font-size="10.00">Bitset::add</text>
</a>
</g>
</g>
<!-- Node1&#45;&gt;Node2 -->
<g id="edge1" class="edge">
<title>Node1&#45;&gt;Node2</title>
<path fill="none" stroke="midnightblue" d="M88.16,-29C96.54,-29 105.3,-29 113.62,-29"/>
<polygon fill="midnightblue" stroke="midnightblue" points="113.86,-32.5 123.86,-29 113.86,-25.5 113.86,-32.5"/>
</g>
<!-- Node3 -->
<g id="node3" class="node">
<title>Node3</title>
<g id="a_node3"><a target="_blank" xlink:href="http://en.cppreference.com/w/cpp/container/vector/resize.html#" xlink:title=" ">
<polygon fill="white" stroke="black" points="224,-38.5 224,-57.5 319,-57.5 319,-38.5 224,-38.5"/>
<text text-anchor="middle" x="271.5" y="-45.5" font-family="Helvetica,sans-Serif" font-size="10.00">std::vector::resize</text>
</a>
</g>
</g>
<!-- Node2&#45;&gt;Node3 -->
<g id="edge2" class="edge">
<title>Node2&#45;&gt;Node3</title>
<path fill="none" stroke="midnightblue" d="M188.01,-34.19C196.03,-35.53 204.91,-37.02 213.78,-38.51"/>
<polygon fill="midnightblue" stroke="midnightblue" points="213.32,-41.98 223.76,-40.18 214.48,-35.07 213.32,-41.98"/>
</g>
<!-- Node4 -->
<g id="node4" class="node">
<title>Node4</title>
<g id="a_node4"><a target="_blank" xlink:href="http://en.cppreference.com/w/cpp/container/vector/size.html#" xlink:title=" ">
<polygon fill="white" stroke="black" points="228,-0.5 228,-19.5 315,-19.5 315,-0.5 228,-0.5"/>
<text text-anchor="middle" x="271.5" y="-7.5" font-family="Helvetica,sans-Serif" font-size="10.00">std::vector::size</text>
</a>
</g>
</g>
<!-- Node2&#45;&gt;Node4 -->
<g id="edge3" class="edge">
<title>Node2&#45;&gt;Node4</title>
<path fill="none" stroke="midnightblue" d="M188.01,-23.81C197.17,-22.28 207.46,-20.55 217.59,-18.86"/>
<polygon fill="midnightblue" stroke="midnightblue" points="218.33,-22.28 227.61,-17.18 217.17,-15.38 218.33,-22.28"/>
</g>
</g>
</svg>
