<?xml version="1.0" encoding="UTF-8" standalone="no"?>
<!DOCTYPE svg PUBLIC "-//W3C//DTD SVG 1.1//EN"
 "http://www.w3.org/Graphics/SVG/1.1/DTD/svg11.dtd">
<!-- Generated by graphviz version 5.0.1 (20220820.1526)
 -->
<!-- Title: BloomFilter::add Pages: 1 -->
<svg width="329pt" height="64pt"
 viewBox="0.00 0.00 329.00 64.00" xmlns="http://www.w3.org/2000/svg" xmlns:xlink="http://www.w3.org/1999/xlink">
<g id="graph0" class="graph" transform="scale(1 1) rotate(0) translate(4 60)">
<title>BloomFilter::add</title>
<!-- Node1 -->
<g id="node1" class="node">
<title>Node1</title>
<g id="a_node1"><a xlink:title="Add function for Bloom filter.">
<polygon fill="#999999" stroke="#666666" points="88,-37 0,-37 0,-18 88,-18 88,-37"/>
<text text-anchor="middle" x="44" y="-25" font-family="Helvetica,sans-Serif" font-size="10.00">BloomFilter::add</text>
</a>
</g>
</g>
<!-- Node2 -->
<g id="node2" class="node">
<title>Node2</title>
<g id="a_node2"><a xlink:href="../../d6/d09/class_bitset.html#a60e5462233fa5852f1e4e4593d41a601" target="_top" xlink:title="Turn bit on position x to 1s.">
<polygon fill="white" stroke="#666666" points="189,-56 125,-56 125,-37 189,-37 189,-56"/>
<text text-anchor="middle" x="157" y="-44" font-family="Helvetica,sans-Serif" font-size="10.00">Bitset::add</text>
</a>
</g>
</g>
<!-- Node1&#45;&gt;Node2 -->
<g id="edge1" class="edge">
<title>Node1&#45;&gt;Node2</title>
<path fill="none" stroke="#63b8ff" d="M88.23,-34.9C96.98,-36.4 106.16,-37.97 114.84,-39.45"/>
<polygon fill="#63b8ff" stroke="#63b8ff" points="114.29,-42.91 124.74,-41.15 115.47,-36.01 114.29,-42.91"/>
</g>
<!-- Node5 -->
<g id="node5" class="node">
<title>Node5</title>
<g id="a_node5"><a xlink:href="../../d6/d09/class_bitset.html#a77a52b97b7ff4120ad92e1ed2a0d531d" target="_top" xlink:title="Returns size of inner array.">
<polygon fill="white" stroke="#666666" points="190,-19 124,-19 124,0 190,0 190,-19"/>
<text text-anchor="middle" x="157" y="-7" font-family="Helvetica,sans-Serif" font-size="10.00">Bitset::size</text>
</a>
</g>
</g>
<!-- Node1&#45;&gt;Node5 -->
<g id="edge4" class="edge">
<title>Node1&#45;&gt;Node5</title>
<path fill="none" stroke="#63b8ff" d="M88.23,-20.49C96.63,-19.13 105.42,-17.7 113.78,-16.35"/>
<polygon fill="#63b8ff" stroke="#63b8ff" points="114.4,-19.79 123.71,-14.74 113.28,-12.88 114.4,-19.79"/>
</g>
<!-- Node3 -->
<g id="node3" class="node">
<title>Node3</title>
<g id="a_node3"><a target="_blank" xlink:href="http://en.cppreference.com/w/cpp/container/vector/resize.html#" xlink:title=" ">
<polygon fill="white" stroke="#666666" points="321,-56 226,-56 226,-37 321,-37 321,-56"/>
<text text-anchor="middle" x="273.5" y="-44" font-family="Helvetica,sans-Serif" font-size="10.00">std::vector::resize</text>
</a>
</g>
</g>
<!-- Node2&#45;&gt;Node3 -->
<g id="edge2" class="edge">
<title>Node2&#45;&gt;Node3</title>
<path fill="none" stroke="#63b8ff" d="M189.29,-46.5C197.47,-46.5 206.54,-46.5 215.6,-46.5"/>
<polygon fill="#63b8ff" stroke="#63b8ff" points="215.78,-50 225.78,-46.5 215.78,-43 215.78,-50"/>
</g>
<!-- Node4 -->
<g id="node4" class="node">
<title>Node4</title>
<g id="a_node4"><a target="_blank" xlink:href="http://en.cppreference.com/w/cpp/container/vector/size.html#" xlink:title=" ">
<polygon fill="white" stroke="#666666" points="317,-19 230,-19 230,0 317,0 317,-19"/>
<text text-anchor="middle" x="273.5" y="-7" font-family="Helvetica,sans-Serif" font-size="10.00">std::vector::size</text>
</a>
</g>
</g>
<!-- Node2&#45;&gt;Node4 -->
<g id="edge3" class="edge">
<title>Node2&#45;&gt;Node4</title>
<path fill="none" stroke="#63b8ff" d="M187.49,-36.97C201.4,-32.48 218.2,-27.05 233.18,-22.2"/>
<polygon fill="#63b8ff" stroke="#63b8ff" points="234.28,-25.53 242.72,-19.12 232.12,-18.87 234.28,-25.53"/>
</g>
<!-- Node5&#45;&gt;Node4 -->
<g id="edge5" class="edge">
<title>Node5&#45;&gt;Node4</title>
<path fill="none" stroke="#63b8ff" d="M190.2,-9.5C199.43,-9.5 209.74,-9.5 219.85,-9.5"/>
<polygon fill="#63b8ff" stroke="#63b8ff" points="219.86,-13 229.86,-9.5 219.86,-6 219.86,-13"/>
</g>
</g>
</svg>
