<?xml version="1.0" encoding="UTF-8" standalone="no"?>
<!DOCTYPE svg PUBLIC "-//W3C//DTD SVG 1.1//EN"
 "http://www.w3.org/Graphics/SVG/1.1/DTD/svg11.dtd">
<!-- Generated by graphviz version 3.0.0 (20220226.1711)
 -->
<!-- Title: BloomFilter::contains Pages: 1 -->
<svg width="361pt" height="66pt"
 viewBox="0.00 0.00 361.00 66.00" xmlns="http://www.w3.org/2000/svg" xmlns:xlink="http://www.w3.org/1999/xlink">
<g id="graph0" class="graph" transform="scale(1 1) rotate(0) translate(4 62)">
<title>BloomFilter::contains</title>
<polygon fill="white" stroke="transparent" points="-4,4 -4,-62 357,-62 357,4 -4,4"/>
<!-- Node1 -->
<g id="node1" class="node">
<title>Node1</title>
<g id="a_node1"><a xlink:title="Check element function for Bloom filter.">
<polygon fill="#bfbfbf" stroke="black" points="0,-19.5 0,-38.5 109,-38.5 109,-19.5 0,-19.5"/>
<text text-anchor="middle" x="54.5" y="-26.5" font-family="Helvetica,sans-Serif" font-size="10.00">BloomFilter::contains</text>
</a>
</g>
</g>
<!-- Node2 -->
<g id="node2" class="node">
<title>Node2</title>
<g id="a_node2"><a xlink:href="../../d6/d09/class_bitset.html#a0bfb11045c04611233dc6e3b42484a19" target="_top" xlink:title="Doest bitset contains element x.">
<polygon fill="white" stroke="black" points="145,-38.5 145,-57.5 230,-57.5 230,-38.5 145,-38.5"/>
<text text-anchor="middle" x="187.5" y="-45.5" font-family="Helvetica,sans-Serif" font-size="10.00">Bitset::contains</text>
</a>
</g>
</g>
<!-- Node1&#45;&gt;Node2 -->
<g id="edge1" class="edge">
<title>Node1&#45;&gt;Node2</title>
<path fill="none" stroke="midnightblue" d="M109.16,-36.78C117.6,-38.01 126.31,-39.27 134.71,-40.49"/>
<polygon fill="midnightblue" stroke="midnightblue" points="134.35,-43.97 144.75,-41.95 135.36,-37.05 134.35,-43.97"/>
</g>
<!-- Node4 -->
<g id="node4" class="node">
<title>Node4</title>
<g id="a_node4"><a xlink:href="../../d6/d09/class_bitset.html#a77a52b97b7ff4120ad92e1ed2a0d531d" target="_top" xlink:title="Returns size of inner array.">
<polygon fill="white" stroke="black" points="154.5,-0.5 154.5,-19.5 220.5,-19.5 220.5,-0.5 154.5,-0.5"/>
<text text-anchor="middle" x="187.5" y="-7.5" font-family="Helvetica,sans-Serif" font-size="10.00">Bitset::size</text>
</a>
</g>
</g>
<!-- Node1&#45;&gt;Node4 -->
<g id="edge3" class="edge">
<title>Node1&#45;&gt;Node4</title>
<path fill="none" stroke="midnightblue" d="M109.16,-21.22C120.85,-19.52 133.05,-17.75 144.22,-16.13"/>
<polygon fill="midnightblue" stroke="midnightblue" points="144.75,-19.59 154.14,-14.69 143.75,-12.66 144.75,-19.59"/>
</g>
<!-- Node3 -->
<g id="node3" class="node">
<title>Node3</title>
<g id="a_node3"><a target="_blank" xlink:href="http://en.cppreference.com/w/cpp/container/vector/size.html#" xlink:title=" ">
<polygon fill="white" stroke="black" points="266,-19.5 266,-38.5 353,-38.5 353,-19.5 266,-19.5"/>
<text text-anchor="middle" x="309.5" y="-26.5" font-family="Helvetica,sans-Serif" font-size="10.00">std::vector::size</text>
</a>
</g>
</g>
<!-- Node2&#45;&gt;Node3 -->
<g id="edge2" class="edge">
<title>Node2&#45;&gt;Node3</title>
<path fill="none" stroke="midnightblue" d="M230.13,-41.41C238.4,-40.1 247.19,-38.71 255.78,-37.35"/>
<polygon fill="midnightblue" stroke="midnightblue" points="256.39,-40.79 265.72,-35.77 255.29,-33.88 256.39,-40.79"/>
</g>
<!-- Node4&#45;&gt;Node3 -->
<g id="edge4" class="edge">
<title>Node4&#45;&gt;Node3</title>
<path fill="none" stroke="midnightblue" d="M220.66,-15.09C231.51,-16.81 243.91,-18.77 255.92,-20.67"/>
<polygon fill="midnightblue" stroke="midnightblue" points="255.44,-24.14 265.87,-22.25 256.54,-17.23 255.44,-24.14"/>
</g>
</g>
</svg>
