<?xml version="1.0" encoding="UTF-8" standalone="no"?>
<!DOCTYPE svg PUBLIC "-//W3C//DTD SVG 1.1//EN"
 "http://www.w3.org/Graphics/SVG/1.1/DTD/svg11.dtd">
<!-- Generated by graphviz version 5.0.1 (20220820.1526)
 -->
<!-- Title: test_bloom_filter_string Pages: 1 -->
<svg width="224pt" height="66pt"
 viewBox="0.00 0.00 224.00 66.00" xmlns="http://www.w3.org/2000/svg" xmlns:xlink="http://www.w3.org/1999/xlink">
<g id="graph0" class="graph" transform="scale(1 1) rotate(0) translate(4 62)">
<title>test_bloom_filter_string</title>
<polygon fill="white" stroke="none" points="-4,4 -4,-62 220,-62 220,4 -4,4"/>
<!-- Node1 -->
<g id="node1" class="node">
<title>Node1</title>
<g id="a_node1"><a xlink:title="Test for bloom filter with string as generic type.">
<polygon fill="#bfbfbf" stroke="black" points="0,-19.5 0,-38.5 118,-38.5 118,-19.5 0,-19.5"/>
<text text-anchor="middle" x="59" y="-26.5" font-family="Helvetica,sans-Serif" font-size="10.00">test_bloom_filter_string</text>
</a>
</g>
</g>
<!-- Node2 -->
<g id="node2" class="node">
<title>Node2</title>
<g id="a_node2"><a xlink:href="../../d9/dab/bloom__filter_8cpp.html#a8acf02700cd197c9d40927d8d8106e0f" target="_top" xlink:title="Function djb2, to get hash for string">
<polygon fill="white" stroke="black" points="154,-38.5 154,-57.5 216,-57.5 216,-38.5 154,-38.5"/>
<text text-anchor="middle" x="185" y="-45.5" font-family="Helvetica,sans-Serif" font-size="10.00">hashDJB2</text>
</a>
</g>
</g>
<!-- Node1&#45;&gt;Node2 -->
<g id="edge1" class="edge">
<title>Node1&#45;&gt;Node2</title>
<path fill="none" stroke="midnightblue" d="M118.01,-37.89C126.69,-39.22 135.48,-40.57 143.7,-41.82"/>
<polygon fill="midnightblue" stroke="midnightblue" points="143.32,-45.31 153.73,-43.36 144.38,-38.39 143.32,-45.31"/>
</g>
<!-- Node3 -->
<g id="node3" class="node">
<title>Node3</title>
<g id="a_node3"><a xlink:href="../../d9/dab/bloom__filter_8cpp.html#ab0bb73bb0fd4cc21c5451acf5339ab47" target="_top" xlink:title="Hash function, to get hash for string">
<polygon fill="white" stroke="black" points="160,-0.5 160,-19.5 210,-19.5 210,-0.5 160,-0.5"/>
<text text-anchor="middle" x="185" y="-7.5" font-family="Helvetica,sans-Serif" font-size="10.00">hashStr</text>
</a>
</g>
</g>
<!-- Node1&#45;&gt;Node3 -->
<g id="edge2" class="edge">
<title>Node1&#45;&gt;Node3</title>
<path fill="none" stroke="midnightblue" d="M118.01,-20.11C128.84,-18.45 139.83,-16.77 149.66,-15.26"/>
<polygon fill="midnightblue" stroke="midnightblue" points="150.45,-18.68 159.81,-13.71 149.39,-11.76 150.45,-18.68"/>
</g>
</g>
</svg>
