<?xml version="1.0" encoding="UTF-8" standalone="no"?>
<!DOCTYPE svg PUBLIC "-//W3C//DTD SVG 1.1//EN"
 "http://www.w3.org/Graphics/SVG/1.1/DTD/svg11.dtd">
<!-- Generated by graphviz version 5.0.1 (20220820.1526)
 -->
<!-- Title: main Pages: 1 -->
<svg width="186pt" height="64pt"
 viewBox="0.00 0.00 186.00 64.00" xmlns="http://www.w3.org/2000/svg" xmlns:xlink="http://www.w3.org/1999/xlink">
<g id="graph0" class="graph" transform="scale(1 1) rotate(0) translate(4 60)">
<title>main</title>
<!-- Node1 -->
<g id="node1" class="node">
<title>Node1</title>
<g id="a_node1"><a xlink:title="Main function.">
<polygon fill="#999999" stroke="#666666" points="38,-37 0,-37 0,-18 38,-18 38,-37"/>
<text text-anchor="middle" x="19" y="-25" font-family="Helvetica,sans-Serif" font-size="10.00">main</text>
</a>
</g>
</g>
<!-- Node2 -->
<g id="node2" class="node">
<title>Node2</title>
<g id="a_node2"><a xlink:href="../../d9/dab/bloom__filter_8cpp.html#a6e509afe40db07681f676ad8da4fb905" target="_top" xlink:title="Test for bitset.">
<polygon fill="white" stroke="#666666" points="157,-56 95,-56 95,-37 157,-37 157,-56"/>
<text text-anchor="middle" x="126" y="-44" font-family="Helvetica,sans-Serif" font-size="10.00">test_bitset</text>
</a>
</g>
</g>
<!-- Node1&#45;&gt;Node2 -->
<g id="edge1" class="edge">
<title>Node1&#45;&gt;Node2</title>
<path fill="none" stroke="#63b8ff" d="M38.29,-30.81C51.01,-33.11 68.49,-36.27 84.42,-39.16"/>
<polygon fill="#63b8ff" stroke="#63b8ff" points="84.13,-42.66 94.59,-41 85.38,-35.77 84.13,-42.66"/>
</g>
<!-- Node3 -->
<g id="node3" class="node">
<title>Node3</title>
<g id="a_node3"><a xlink:href="../../d9/dab/bloom__filter_8cpp.html#a30edc0d2bb59c185baec81d69d20ed3b" target="_top" xlink:title="Test for bloom filter with int as generic type.">
<polygon fill="white" stroke="#666666" points="178,-19 74,-19 74,0 178,0 178,-19"/>
<text text-anchor="middle" x="126" y="-7" font-family="Helvetica,sans-Serif" font-size="10.00">test_bloom_filter_int</text>
</a>
</g>
</g>
<!-- Node1&#45;&gt;Node3 -->
<g id="edge2" class="edge">
<title>Node1&#45;&gt;Node3</title>
<path fill="none" stroke="#63b8ff" d="M38.29,-24.36C45.7,-23.09 54.73,-21.55 64.12,-19.94"/>
<polygon fill="#63b8ff" stroke="#63b8ff" points="64.73,-23.38 73.99,-18.24 63.54,-16.48 64.73,-23.38"/>
</g>
</g>
</svg>
