<?xml version="1.0" encoding="UTF-8" standalone="no"?>
<!DOCTYPE svg PUBLIC "-//W3C//DTD SVG 1.1//EN"
 "http://www.w3.org/Graphics/SVG/1.1/DTD/svg11.dtd">
<!-- Generated by graphviz version 3.0.0 (20220226.1711)
 -->
<!-- Title: test_bloom_filter_string Pages: 1 -->
<svg width="344pt" height="66pt"
 viewBox="0.00 0.00 344.00 66.00" xmlns="http://www.w3.org/2000/svg" xmlns:xlink="http://www.w3.org/1999/xlink">
<g id="graph0" class="graph" transform="scale(1 1) rotate(0) translate(4 62)">
<title>test_bloom_filter_string</title>
<polygon fill="white" stroke="transparent" points="-4,4 -4,-62 340,-62 340,4 -4,4"/>
<!-- Node1 -->
<g id="node1" class="node">
<title>Node1</title>
<g id="a_node1"><a xlink:title="Test for bloom filter with string as generic type.">
<polygon fill="#bfbfbf" stroke="black" points="0,-19.5 0,-38.5 118,-38.5 118,-19.5 0,-19.5"/>
<text text-anchor="middle" x="59" y="-26.5" font-family="Helvetica,sans-Serif" font-size="10.00">test_bloom_filter_string</text>
</a>
</g>
</g>
<!-- Node2 -->
<g id="node2" class="node">
<title>Node2</title>
<g id="a_node2"><a xlink:href="../../d9/dab/bloom__filter_8cpp.html#a47143d635f96cf46fa60931e81d49f79" target="_top" xlink:title="Function djb2, to get hash for string">
<polygon fill="white" stroke="black" points="154,-38.5 154,-57.5 216,-57.5 216,-38.5 154,-38.5"/>
<text text-anchor="middle" x="185" y="-45.5" font-family="Helvetica,sans-Serif" font-size="10.00">hashDJB2</text>
</a>
</g>
</g>
<!-- Node1&#45;&gt;Node2 -->
<g id="edge1" class="edge">
<title>Node1&#45;&gt;Node2</title>
<path fill="none" stroke="midnightblue" d="M118.01,-37.89C126.69,-39.22 135.48,-40.57 143.7,-41.82"/>
<polygon fill="midnightblue" stroke="midnightblue" points="143.32,-45.31 153.73,-43.36 144.38,-38.39 143.32,-45.31"/>
</g>
<!-- Node4 -->
<g id="node4" class="node">
<title>Node4</title>
<g id="a_node4"><a xlink:href="../../d9/dab/bloom__filter_8cpp.html#afbe61f716d8fe976f986bad13cd4bcaa" target="_top" xlink:title="Hash function, to get hash for string">
<polygon fill="white" stroke="black" points="160,-0.5 160,-19.5 210,-19.5 210,-0.5 160,-0.5"/>
<text text-anchor="middle" x="185" y="-7.5" font-family="Helvetica,sans-Serif" font-size="10.00">hashStr</text>
</a>
</g>
</g>
<!-- Node1&#45;&gt;Node4 -->
<g id="edge3" class="edge">
<title>Node1&#45;&gt;Node4</title>
<path fill="none" stroke="midnightblue" d="M118.01,-20.11C128.84,-18.45 139.83,-16.77 149.66,-15.26"/>
<polygon fill="midnightblue" stroke="midnightblue" points="150.45,-18.68 159.81,-13.71 149.39,-11.76 150.45,-18.68"/>
</g>
<!-- Node3 -->
<g id="node3" class="node">
<title>Node3</title>
<g id="a_node3"><a target="_blank" xlink:href="http://en.cppreference.com/w/cpp/string/basic_string/size.html#" xlink:title=" ">
<polygon fill="white" stroke="black" points="252,-38.5 252,-57.5 336,-57.5 336,-38.5 252,-38.5"/>
<text text-anchor="middle" x="294" y="-45.5" font-family="Helvetica,sans-Serif" font-size="10.00">std::string::size</text>
</a>
</g>
</g>
<!-- Node2&#45;&gt;Node3 -->
<g id="edge2" class="edge">
<title>Node2&#45;&gt;Node3</title>
<path fill="none" stroke="midnightblue" d="M216.09,-48C224.09,-48 232.95,-48 241.74,-48"/>
<polygon fill="midnightblue" stroke="midnightblue" points="241.96,-51.5 251.96,-48 241.96,-44.5 241.96,-51.5"/>
</g>
<!-- Node4&#45;&gt;Node3 -->
<g id="edge5" class="edge">
<title>Node4&#45;&gt;Node3</title>
<path fill="none" stroke="midnightblue" d="M210.01,-18.53C223.66,-23.37 241.03,-29.54 256.35,-34.98"/>
<polygon fill="midnightblue" stroke="midnightblue" points="255.46,-38.38 266.06,-38.43 257.8,-31.79 255.46,-38.38"/>
</g>
<!-- Node5 -->
<g id="node5" class="node">
<title>Node5</title>
<g id="a_node5"><a xlink:href="../../d1/df3/hash__search_8cpp.html#a566eaf0ffafd50bc61e644561fd27001" target="_top" xlink:title=" ">
<polygon fill="white" stroke="black" points="279.5,-0.5 279.5,-19.5 308.5,-19.5 308.5,-0.5 279.5,-0.5"/>
<text text-anchor="middle" x="294" y="-7.5" font-family="Helvetica,sans-Serif" font-size="10.00">h</text>
</a>
</g>
</g>
<!-- Node4&#45;&gt;Node5 -->
<g id="edge4" class="edge">
<title>Node4&#45;&gt;Node5</title>
<path fill="none" stroke="midnightblue" d="M210.01,-10C227.67,-10 251.55,-10 269.17,-10"/>
<polygon fill="midnightblue" stroke="midnightblue" points="269.21,-13.5 279.21,-10 269.21,-6.5 269.21,-13.5"/>
</g>
</g>
</svg>
