<?xml version="1.0" encoding="UTF-8" standalone="no"?>
<!DOCTYPE svg PUBLIC "-//W3C//DTD SVG 1.1//EN"
 "http://www.w3.org/Graphics/SVG/1.1/DTD/svg11.dtd">
<!-- Generated by graphviz version 5.0.1 (20220820.1526)
 -->
<!-- Title: test_bloom_filter_string Pages: 1 -->
<svg width="224pt" height="64pt"
 viewBox="0.00 0.00 224.00 64.00" xmlns="http://www.w3.org/2000/svg" xmlns:xlink="http://www.w3.org/1999/xlink">
<g id="graph0" class="graph" transform="scale(1 1) rotate(0) translate(4 60)">
<title>test_bloom_filter_string</title>
<!-- Node1 -->
<g id="node1" class="node">
<title>Node1</title>
<g id="a_node1"><a xlink:title="Test for bloom filter with string as generic type.">
<polygon fill="#999999" stroke="#666666" points="118,-37 0,-37 0,-18 118,-18 118,-37"/>
<text text-anchor="middle" x="59" y="-25" font-family="Helvetica,sans-Serif" font-size="10.00">test_bloom_filter_string</text>
</a>
</g>
</g>
<!-- Node2 -->
<g id="node2" class="node">
<title>Node2</title>
<g id="a_node2"><a xlink:href="../../d9/dab/bloom__filter_8cpp.html#a8acf02700cd197c9d40927d8d8106e0f" target="_top" xlink:title="Function djb2, to get hash for string">
<polygon fill="white" stroke="#666666" points="216,-56 154,-56 154,-37 216,-37 216,-56"/>
<text text-anchor="middle" x="185" y="-44" font-family="Helvetica,sans-Serif" font-size="10.00">hashDJB2</text>
</a>
</g>
</g>
<!-- Node1&#45;&gt;Node2 -->
<g id="edge1" class="edge">
<title>Node1&#45;&gt;Node2</title>
<path fill="none" stroke="#63b8ff" d="M118.01,-36.39C126.69,-37.72 135.48,-39.07 143.7,-40.32"/>
<polygon fill="#63b8ff" stroke="#63b8ff" points="143.32,-43.81 153.73,-41.86 144.38,-36.89 143.32,-43.81"/>
</g>
<!-- Node3 -->
<g id="node3" class="node">
<title>Node3</title>
<g id="a_node3"><a xlink:href="../../d9/dab/bloom__filter_8cpp.html#ab0bb73bb0fd4cc21c5451acf5339ab47" target="_top" xlink:title="Hash function, to get hash for string">
<polygon fill="white" stroke="#666666" points="210,-19 160,-19 160,0 210,0 210,-19"/>
<text text-anchor="middle" x="185" y="-7" font-family="Helvetica,sans-Serif" font-size="10.00">hashStr</text>
</a>
</g>
</g>
<!-- Node1&#45;&gt;Node3 -->
<g id="edge2" class="edge">
<title>Node1&#45;&gt;Node3</title>
<path fill="none" stroke="#63b8ff" d="M118.01,-19.08C128.84,-17.51 139.83,-15.91 149.66,-14.48"/>
<polygon fill="#63b8ff" stroke="#63b8ff" points="150.41,-17.91 159.81,-13.01 149.41,-10.99 150.41,-17.91"/>
</g>
</g>
</svg>
