<?xml version="1.0" encoding="UTF-8" standalone="no"?>
<!DOCTYPE svg PUBLIC "-//W3C//DTD SVG 1.1//EN"
 "http://www.w3.org/Graphics/SVG/1.1/DTD/svg11.dtd">
<!-- Generated by graphviz version 5.0.1 (20220820.1526)
 -->
<!-- Title: main Pages: 1 -->
<svg width="452pt" height="212pt"
 viewBox="0.00 0.00 452.00 212.00" xmlns="http://www.w3.org/2000/svg" xmlns:xlink="http://www.w3.org/1999/xlink">
<g id="graph0" class="graph" transform="scale(1 1) rotate(0) translate(4 208)">
<title>main</title>
<!-- Node1 -->
<g id="node1" class="node">
<title>Node1</title>
<g id="a_node1"><a xlink:title="Main function.">
<polygon fill="#999999" stroke="#666666" points="38,-112 0,-112 0,-93 38,-93 38,-112"/>
<text text-anchor="middle" x="19" y="-100" font-family="Helvetica,sans-Serif" font-size="10.00">main</text>
</a>
</g>
</g>
<!-- Node2 -->
<g id="node2" class="node">
<title>Node2</title>
<g id="a_node2"><a xlink:href="../../d9/dab/bloom__filter_8cpp.html#a6e509afe40db07681f676ad8da4fb905" target="_top" xlink:title="Test for bitset.">
<polygon fill="white" stroke="#666666" points="164,-167 102,-167 102,-148 164,-148 164,-167"/>
<text text-anchor="middle" x="133" y="-155" font-family="Helvetica,sans-Serif" font-size="10.00">test_bitset</text>
</a>
</g>
</g>
<!-- Node1&#45;&gt;Node2 -->
<g id="edge1" class="edge">
<title>Node1&#45;&gt;Node2</title>
<path fill="none" stroke="#63b8ff" d="M38.49,-111.58C56.09,-120.22 82.82,-133.35 103.2,-143.36"/>
<polygon fill="#63b8ff" stroke="#63b8ff" points="101.83,-146.58 112.35,-147.85 104.91,-140.3 101.83,-146.58"/>
</g>
<!-- Node7 -->
<g id="node7" class="node">
<title>Node7</title>
<g id="a_node7"><a xlink:href="../../d9/dab/bloom__filter_8cpp.html#a30edc0d2bb59c185baec81d69d20ed3b" target="_top" xlink:title="Test for bloom filter with int as generic type.">
<polygon fill="white" stroke="#666666" points="185,-112 81,-112 81,-93 185,-93 185,-112"/>
<text text-anchor="middle" x="133" y="-100" font-family="Helvetica,sans-Serif" font-size="10.00">test_bloom_filter_int</text>
</a>
</g>
</g>
<!-- Node1&#45;&gt;Node7 -->
<g id="edge7" class="edge">
<title>Node1&#45;&gt;Node7</title>
<path fill="none" stroke="#63b8ff" d="M38.49,-102.5C47.43,-102.5 58.73,-102.5 70.36,-102.5"/>
<polygon fill="#63b8ff" stroke="#63b8ff" points="70.6,-106 80.6,-102.5 70.6,-99 70.6,-106"/>
</g>
<!-- Node10 -->
<g id="node10" class="node">
<title>Node10</title>
<g id="a_node10"><a xlink:href="../../d9/dab/bloom__filter_8cpp.html#a71f57bf262fe55db928b19dc124cc0d8" target="_top" xlink:title="Test for bloom filter with string as generic type.">
<polygon fill="white" stroke="#666666" points="192,-56 74,-56 74,-37 192,-37 192,-56"/>
<text text-anchor="middle" x="133" y="-44" font-family="Helvetica,sans-Serif" font-size="10.00">test_bloom_filter_string</text>
</a>
</g>
</g>
<!-- Node1&#45;&gt;Node10 -->
<g id="edge10" class="edge">
<title>Node1&#45;&gt;Node10</title>
<path fill="none" stroke="#63b8ff" d="M38.49,-93.25C56.19,-84.4 83.15,-70.93 103.57,-60.71"/>
<polygon fill="#63b8ff" stroke="#63b8ff" points="105.35,-63.74 112.73,-56.14 102.22,-57.48 105.35,-63.74"/>
</g>
<!-- Node3 -->
<g id="node3" class="node">
<title>Node3</title>
<g id="a_node3"><a xlink:href="../../d6/d09/class_bitset.html#a60e5462233fa5852f1e4e4593d41a601" target="_top" xlink:title="Turn bit on position x to 1s.">
<polygon fill="white" stroke="#666666" points="302.5,-204 238.5,-204 238.5,-185 302.5,-185 302.5,-204"/>
<text text-anchor="middle" x="270.5" y="-192" font-family="Helvetica,sans-Serif" font-size="10.00">Bitset::add</text>
</a>
</g>
</g>
<!-- Node2&#45;&gt;Node3 -->
<g id="edge2" class="edge">
<title>Node2&#45;&gt;Node3</title>
<path fill="none" stroke="#63b8ff" d="M164.07,-165.71C182.97,-170.87 207.59,-177.6 228.3,-183.25"/>
<polygon fill="#63b8ff" stroke="#63b8ff" points="227.53,-186.67 238.1,-185.93 229.37,-179.92 227.53,-186.67"/>
</g>
<!-- Node6 -->
<g id="node6" class="node">
<title>Node6</title>
<g id="a_node6"><a xlink:href="../../d6/d09/class_bitset.html#a0bfb11045c04611233dc6e3b42484a19" target="_top" xlink:title="Doest bitset contains element x.">
<polygon fill="white" stroke="#666666" points="313,-167 228,-167 228,-148 313,-148 313,-167"/>
<text text-anchor="middle" x="270.5" y="-155" font-family="Helvetica,sans-Serif" font-size="10.00">Bitset::contains</text>
</a>
</g>
</g>
<!-- Node2&#45;&gt;Node6 -->
<g id="edge5" class="edge">
<title>Node2&#45;&gt;Node6</title>
<path fill="none" stroke="#63b8ff" d="M164.07,-157.5C179.85,-157.5 199.63,-157.5 217.78,-157.5"/>
<polygon fill="#63b8ff" stroke="#63b8ff" points="217.95,-161 227.95,-157.5 217.95,-154 217.95,-161"/>
</g>
<!-- Node4 -->
<g id="node4" class="node">
<title>Node4</title>
<g id="a_node4"><a target="_blank" xlink:href="http://en.cppreference.com/w/cpp/container/vector/resize.html#" xlink:title=" ">
<polygon fill="white" stroke="#666666" points="444,-204 349,-204 349,-185 444,-185 444,-204"/>
<text text-anchor="middle" x="396.5" y="-192" font-family="Helvetica,sans-Serif" font-size="10.00">std::vector::resize</text>
</a>
</g>
</g>
<!-- Node3&#45;&gt;Node4 -->
<g id="edge3" class="edge">
<title>Node3&#45;&gt;Node4</title>
<path fill="none" stroke="#63b8ff" d="M302.79,-194.5C313.66,-194.5 326.22,-194.5 338.52,-194.5"/>
<polygon fill="#63b8ff" stroke="#63b8ff" points="338.74,-198 348.74,-194.5 338.74,-191 338.74,-198"/>
</g>
<!-- Node5 -->
<g id="node5" class="node">
<title>Node5</title>
<g id="a_node5"><a target="_blank" xlink:href="http://en.cppreference.com/w/cpp/container/vector/size.html#" xlink:title=" ">
<polygon fill="white" stroke="#666666" points="440,-167 353,-167 353,-148 440,-148 440,-167"/>
<text text-anchor="middle" x="396.5" y="-155" font-family="Helvetica,sans-Serif" font-size="10.00">std::vector::size</text>
</a>
</g>
</g>
<!-- Node3&#45;&gt;Node5 -->
<g id="edge4" class="edge">
<title>Node3&#45;&gt;Node5</title>
<path fill="none" stroke="#63b8ff" d="M302.79,-185.16C318.12,-180.59 336.8,-175.02 353.36,-170.07"/>
<polygon fill="#63b8ff" stroke="#63b8ff" points="354.77,-173.3 363.36,-167.09 352.77,-166.6 354.77,-173.3"/>
</g>
<!-- Node6&#45;&gt;Node5 -->
<g id="edge6" class="edge">
<title>Node6&#45;&gt;Node5</title>
<path fill="none" stroke="#63b8ff" d="M313.14,-157.5C322.64,-157.5 332.86,-157.5 342.76,-157.5"/>
<polygon fill="#63b8ff" stroke="#63b8ff" points="342.92,-161 352.92,-157.5 342.92,-154 342.92,-161"/>
</g>
<!-- Node8 -->
<g id="node8" class="node">
<title>Node8</title>
<g id="a_node8"><a xlink:href="../../d9/dab/bloom__filter_8cpp.html#a574dd0ecfa8c7278f6d6f7da1db5c485" target="_top" xlink:title="Hash function for test">
<polygon fill="white" stroke="#666666" points="300,-130 241,-130 241,-111 300,-111 300,-130"/>
<text text-anchor="middle" x="270.5" y="-118" font-family="Helvetica,sans-Serif" font-size="10.00">hashInt_1</text>
</a>
</g>
</g>
<!-- Node7&#45;&gt;Node8 -->
<g id="edge8" class="edge">
<title>Node7&#45;&gt;Node8</title>
<path fill="none" stroke="#63b8ff" d="M185.23,-109.31C200.42,-111.32 216.8,-113.5 231.04,-115.39"/>
<polygon fill="#63b8ff" stroke="#63b8ff" points="230.61,-118.86 240.99,-116.71 231.53,-111.93 230.61,-118.86"/>
</g>
<!-- Node9 -->
<g id="node9" class="node">
<title>Node9</title>
<g id="a_node9"><a xlink:href="../../d9/dab/bloom__filter_8cpp.html#aa4c5cbd8de1820c08bcdd87c3a6543cd" target="_top" xlink:title="Hash function for test">
<polygon fill="white" stroke="#666666" points="300,-93 241,-93 241,-74 300,-74 300,-93"/>
<text text-anchor="middle" x="270.5" y="-81" font-family="Helvetica,sans-Serif" font-size="10.00">hashInt_2</text>
</a>
</g>
</g>
<!-- Node7&#45;&gt;Node9 -->
<g id="edge9" class="edge">
<title>Node7&#45;&gt;Node9</title>
<path fill="none" stroke="#63b8ff" d="M185.23,-95.32C200.42,-93.19 216.8,-90.89 231.04,-88.89"/>
<polygon fill="#63b8ff" stroke="#63b8ff" points="231.57,-92.35 240.99,-87.5 230.6,-85.42 231.57,-92.35"/>
</g>
<!-- Node11 -->
<g id="node11" class="node">
<title>Node11</title>
<g id="a_node11"><a xlink:href="../../d9/dab/bloom__filter_8cpp.html#a8acf02700cd197c9d40927d8d8106e0f" target="_top" xlink:title="Function djb2, to get hash for string">
<polygon fill="white" stroke="#666666" points="301.5,-56 239.5,-56 239.5,-37 301.5,-37 301.5,-56"/>
<text text-anchor="middle" x="270.5" y="-44" font-family="Helvetica,sans-Serif" font-size="10.00">hashDJB2</text>
</a>
</g>
</g>
<!-- Node10&#45;&gt;Node11 -->
<g id="edge11" class="edge">
<title>Node10&#45;&gt;Node11</title>
<path fill="none" stroke="#63b8ff" d="M192.25,-46.5C204.66,-46.5 217.51,-46.5 229.08,-46.5"/>
<polygon fill="#63b8ff" stroke="#63b8ff" points="229.29,-50 239.29,-46.5 229.29,-43 229.29,-50"/>
</g>
<!-- Node12 -->
<g id="node12" class="node">
<title>Node12</title>
<g id="a_node12"><a xlink:href="../../d9/dab/bloom__filter_8cpp.html#ab0bb73bb0fd4cc21c5451acf5339ab47" target="_top" xlink:title="Hash function, to get hash for string">
<polygon fill="white" stroke="#666666" points="295.5,-19 245.5,-19 245.5,0 295.5,0 295.5,-19"/>
<text text-anchor="middle" x="270.5" y="-7" font-family="Helvetica,sans-Serif" font-size="10.00">hashStr</text>
</a>
</g>
</g>
<!-- Node10&#45;&gt;Node12 -->
<g id="edge12" class="edge">
<title>Node10&#45;&gt;Node12</title>
<path fill="none" stroke="#63b8ff" d="M168.89,-36.97C189.42,-31.37 215.26,-24.31 235.61,-18.75"/>
<polygon fill="#63b8ff" stroke="#63b8ff" points="236.67,-22.09 245.4,-16.08 234.83,-15.34 236.67,-22.09"/>
</g>
</g>
</svg>
