<?xml version="1.0" encoding="UTF-8" standalone="no"?>
<!DOCTYPE svg PUBLIC "-//W3C//DTD SVG 1.1//EN"
 "http://www.w3.org/Graphics/SVG/1.1/DTD/svg11.dtd">
<!-- Generated by graphviz version 5.0.0 (20220707.1540)
 -->
<!-- Title: test_bloom_filter_int Pages: 1 -->
<svg width="207pt" height="66pt"
 viewBox="0.00 0.00 207.00 66.00" xmlns="http://www.w3.org/2000/svg" xmlns:xlink="http://www.w3.org/1999/xlink">
<g id="graph0" class="graph" transform="scale(1 1) rotate(0) translate(4 62)">
<title>test_bloom_filter_int</title>
<polygon fill="white" stroke="transparent" points="-4,4 -4,-62 203,-62 203,4 -4,4"/>
<!-- Node1 -->
<g id="node1" class="node">
<title>Node1</title>
<g id="a_node1"><a xlink:title="Test for bloom filter with int as generic type.">
<polygon fill="#bfbfbf" stroke="black" points="0,-19.5 0,-38.5 104,-38.5 104,-19.5 0,-19.5"/>
<text text-anchor="middle" x="52" y="-26.5" font-family="Helvetica,sans-Serif" font-size="10.00">test_bloom_filter_int</text>
</a>
</g>
</g>
<!-- Node2 -->
<g id="node2" class="node">
<title>Node2</title>
<g id="a_node2"><a xlink:href="../../d9/dab/bloom__filter_8cpp.html#a574dd0ecfa8c7278f6d6f7da1db5c485" target="_top" xlink:title="Hash function for test">
<polygon fill="white" stroke="black" points="140,-38.5 140,-57.5 199,-57.5 199,-38.5 140,-38.5"/>
<text text-anchor="middle" x="169.5" y="-45.5" font-family="Helvetica,sans-Serif" font-size="10.00">hashInt_1</text>
</a>
</g>
</g>
<!-- Node1&#45;&gt;Node2 -->
<g id="edge1" class="edge">
<title>Node1&#45;&gt;Node2</title>
<path fill="none" stroke="midnightblue" d="M104.33,-37.44C112.89,-38.85 121.64,-40.29 129.81,-41.64"/>
<polygon fill="midnightblue" stroke="midnightblue" points="129.36,-45.11 139.8,-43.28 130.5,-38.2 129.36,-45.11"/>
</g>
<!-- Node3 -->
<g id="node3" class="node">
<title>Node3</title>
<g id="a_node3"><a xlink:href="../../d9/dab/bloom__filter_8cpp.html#aa4c5cbd8de1820c08bcdd87c3a6543cd" target="_top" xlink:title="Hash function for test">
<polygon fill="white" stroke="black" points="140,-0.5 140,-19.5 199,-19.5 199,-0.5 140,-0.5"/>
<text text-anchor="middle" x="169.5" y="-7.5" font-family="Helvetica,sans-Serif" font-size="10.00">hashInt_2</text>
</a>
</g>
</g>
<!-- Node1&#45;&gt;Node3 -->
<g id="edge2" class="edge">
<title>Node1&#45;&gt;Node3</title>
<path fill="none" stroke="midnightblue" d="M104.33,-20.56C112.89,-19.15 121.64,-17.71 129.81,-16.36"/>
<polygon fill="midnightblue" stroke="midnightblue" points="130.5,-19.8 139.8,-14.72 129.36,-12.89 130.5,-19.8"/>
</g>
</g>
</svg>
