<?xml version="1.0" encoding="UTF-8" standalone="no"?>
<!DOCTYPE svg PUBLIC "-//W3C//DTD SVG 1.1//EN"
 "http://www.w3.org/Graphics/SVG/1.1/DTD/svg11.dtd">
<!-- Generated by graphviz version 5.0.1 (20220820.1526)
 -->
<!-- Title: test_bloom_filter_int Pages: 1 -->
<svg width="207pt" height="64pt"
 viewBox="0.00 0.00 207.00 64.00" xmlns="http://www.w3.org/2000/svg" xmlns:xlink="http://www.w3.org/1999/xlink">
<g id="graph0" class="graph" transform="scale(1 1) rotate(0) translate(4 60)">
<title>test_bloom_filter_int</title>
<!-- Node1 -->
<g id="node1" class="node">
<title>Node1</title>
<g id="a_node1"><a xlink:title="Test for bloom filter with int as generic type.">
<polygon fill="#999999" stroke="#666666" points="104,-37 0,-37 0,-18 104,-18 104,-37"/>
<text text-anchor="middle" x="52" y="-25" font-family="Helvetica,sans-Serif" font-size="10.00">test_bloom_filter_int</text>
</a>
</g>
</g>
<!-- Node2 -->
<g id="node2" class="node">
<title>Node2</title>
<g id="a_node2"><a xlink:href="../../d9/dab/bloom__filter_8cpp.html#a574dd0ecfa8c7278f6d6f7da1db5c485" target="_top" xlink:title="Hash function for test">
<polygon fill="white" stroke="#666666" points="199,-56 140,-56 140,-37 199,-37 199,-56"/>
<text text-anchor="middle" x="169.5" y="-44" font-family="Helvetica,sans-Serif" font-size="10.00">hashInt_1</text>
</a>
</g>
</g>
<!-- Node1&#45;&gt;Node2 -->
<g id="edge1" class="edge">
<title>Node1&#45;&gt;Node2</title>
<path fill="none" stroke="#63b8ff" d="M104.33,-35.94C112.89,-37.35 121.64,-38.79 129.81,-40.14"/>
<polygon fill="#63b8ff" stroke="#63b8ff" points="129.36,-43.61 139.8,-41.78 130.5,-36.7 129.36,-43.61"/>
</g>
<!-- Node3 -->
<g id="node3" class="node">
<title>Node3</title>
<g id="a_node3"><a xlink:href="../../d9/dab/bloom__filter_8cpp.html#aa4c5cbd8de1820c08bcdd87c3a6543cd" target="_top" xlink:title="Hash function for test">
<polygon fill="white" stroke="#666666" points="199,-19 140,-19 140,0 199,0 199,-19"/>
<text text-anchor="middle" x="169.5" y="-7" font-family="Helvetica,sans-Serif" font-size="10.00">hashInt_2</text>
</a>
</g>
</g>
<!-- Node1&#45;&gt;Node3 -->
<g id="edge2" class="edge">
<title>Node1&#45;&gt;Node3</title>
<path fill="none" stroke="#63b8ff" d="M104.33,-19.5C112.89,-18.17 121.64,-16.8 129.81,-15.53"/>
<polygon fill="#63b8ff" stroke="#63b8ff" points="130.46,-18.97 139.8,-13.97 129.38,-12.05 130.46,-18.97"/>
</g>
</g>
</svg>
