<?xml version="1.0" encoding="UTF-8" standalone="no"?>
<!DOCTYPE svg PUBLIC "-//W3C//DTD SVG 1.1//EN"
 "http://www.w3.org/Graphics/SVG/1.1/DTD/svg11.dtd">
<!-- Generated by graphviz version 5.0.0 (20220707.1540)
 -->
<!-- Title: main Pages: 1 -->
<svg width="452pt" height="218pt"
 viewBox="0.00 0.00 452.00 218.00" xmlns="http://www.w3.org/2000/svg" xmlns:xlink="http://www.w3.org/1999/xlink">
<g id="graph0" class="graph" transform="scale(1 1) rotate(0) translate(4 214)">
<title>main</title>
<polygon fill="white" stroke="transparent" points="-4,4 -4,-214 448,-214 448,4 -4,4"/>
<!-- Node1 -->
<g id="node1" class="node">
<title>Node1</title>
<g id="a_node1"><a xlink:title="Main function.">
<polygon fill="#bfbfbf" stroke="black" points="0,-95.5 0,-114.5 38,-114.5 38,-95.5 0,-95.5"/>
<text text-anchor="middle" x="19" y="-102.5" font-family="Helvetica,sans-Serif" font-size="10.00">main</text>
</a>
</g>
</g>
<!-- Node2 -->
<g id="node2" class="node">
<title>Node2</title>
<g id="a_node2"><a xlink:href="../../d9/dab/bloom__filter_8cpp.html#a6e509afe40db07681f676ad8da4fb905" target="_top" xlink:title="Test for bitset.">
<polygon fill="white" stroke="black" points="102,-152.5 102,-171.5 164,-171.5 164,-152.5 102,-152.5"/>
<text text-anchor="middle" x="133" y="-159.5" font-family="Helvetica,sans-Serif" font-size="10.00">test_bitset</text>
</a>
</g>
</g>
<!-- Node1&#45;&gt;Node2 -->
<g id="edge1" class="edge">
<title>Node1&#45;&gt;Node2</title>
<path fill="none" stroke="midnightblue" d="M38.49,-114.41C56.3,-123.48 83.47,-137.3 103.95,-147.72"/>
<polygon fill="midnightblue" stroke="midnightblue" points="102.6,-150.97 113.1,-152.38 105.78,-144.73 102.6,-150.97"/>
</g>
<!-- Node7 -->
<g id="node7" class="node">
<title>Node7</title>
<g id="a_node7"><a xlink:href="../../d9/dab/bloom__filter_8cpp.html#a30edc0d2bb59c185baec81d69d20ed3b" target="_top" xlink:title="Test for bloom filter with int as generic type.">
<polygon fill="white" stroke="black" points="81,-95.5 81,-114.5 185,-114.5 185,-95.5 81,-95.5"/>
<text text-anchor="middle" x="133" y="-102.5" font-family="Helvetica,sans-Serif" font-size="10.00">test_bloom_filter_int</text>
</a>
</g>
</g>
<!-- Node1&#45;&gt;Node7 -->
<g id="edge7" class="edge">
<title>Node1&#45;&gt;Node7</title>
<path fill="none" stroke="midnightblue" d="M38.49,-105C47.43,-105 58.73,-105 70.36,-105"/>
<polygon fill="midnightblue" stroke="midnightblue" points="70.6,-108.5 80.6,-105 70.6,-101.5 70.6,-108.5"/>
</g>
<!-- Node10 -->
<g id="node10" class="node">
<title>Node10</title>
<g id="a_node10"><a xlink:href="../../d9/dab/bloom__filter_8cpp.html#a71f57bf262fe55db928b19dc124cc0d8" target="_top" xlink:title="Test for bloom filter with string as generic type.">
<polygon fill="white" stroke="black" points="74,-38.5 74,-57.5 192,-57.5 192,-38.5 74,-38.5"/>
<text text-anchor="middle" x="133" y="-45.5" font-family="Helvetica,sans-Serif" font-size="10.00">test_bloom_filter_string</text>
</a>
</g>
</g>
<!-- Node1&#45;&gt;Node10 -->
<g id="edge10" class="edge">
<title>Node1&#45;&gt;Node10</title>
<path fill="none" stroke="midnightblue" d="M38.49,-95.59C56.3,-86.52 83.47,-72.7 103.95,-62.28"/>
<polygon fill="midnightblue" stroke="midnightblue" points="105.78,-65.27 113.1,-57.62 102.6,-59.03 105.78,-65.27"/>
</g>
<!-- Node3 -->
<g id="node3" class="node">
<title>Node3</title>
<g id="a_node3"><a xlink:href="../../d6/d09/class_bitset.html#a60e5462233fa5852f1e4e4593d41a601" target="_top" xlink:title="Turn bit on position x to 1s.">
<polygon fill="white" stroke="black" points="238.5,-190.5 238.5,-209.5 302.5,-209.5 302.5,-190.5 238.5,-190.5"/>
<text text-anchor="middle" x="270.5" y="-197.5" font-family="Helvetica,sans-Serif" font-size="10.00">Bitset::add</text>
</a>
</g>
</g>
<!-- Node2&#45;&gt;Node3 -->
<g id="edge2" class="edge">
<title>Node2&#45;&gt;Node3</title>
<path fill="none" stroke="midnightblue" d="M164.07,-170.43C182.97,-175.73 207.59,-182.64 228.3,-188.44"/>
<polygon fill="midnightblue" stroke="midnightblue" points="227.53,-191.86 238.1,-191.19 229.42,-185.12 227.53,-191.86"/>
</g>
<!-- Node6 -->
<g id="node6" class="node">
<title>Node6</title>
<g id="a_node6"><a xlink:href="../../d6/d09/class_bitset.html#a0bfb11045c04611233dc6e3b42484a19" target="_top" xlink:title="Doest bitset contains element x.">
<polygon fill="white" stroke="black" points="228,-152.5 228,-171.5 313,-171.5 313,-152.5 228,-152.5"/>
<text text-anchor="middle" x="270.5" y="-159.5" font-family="Helvetica,sans-Serif" font-size="10.00">Bitset::contains</text>
</a>
</g>
</g>
<!-- Node2&#45;&gt;Node6 -->
<g id="edge5" class="edge">
<title>Node2&#45;&gt;Node6</title>
<path fill="none" stroke="midnightblue" d="M164.07,-162C179.85,-162 199.63,-162 217.78,-162"/>
<polygon fill="midnightblue" stroke="midnightblue" points="217.95,-165.5 227.95,-162 217.95,-158.5 217.95,-165.5"/>
</g>
<!-- Node4 -->
<g id="node4" class="node">
<title>Node4</title>
<g id="a_node4"><a target="_blank" xlink:href="http://en.cppreference.com/w/cpp/container/vector/resize.html#" xlink:title=" ">
<polygon fill="white" stroke="black" points="349,-190.5 349,-209.5 444,-209.5 444,-190.5 349,-190.5"/>
<text text-anchor="middle" x="396.5" y="-197.5" font-family="Helvetica,sans-Serif" font-size="10.00">std::vector::resize</text>
</a>
</g>
</g>
<!-- Node3&#45;&gt;Node4 -->
<g id="edge3" class="edge">
<title>Node3&#45;&gt;Node4</title>
<path fill="none" stroke="midnightblue" d="M302.79,-200C313.66,-200 326.22,-200 338.52,-200"/>
<polygon fill="midnightblue" stroke="midnightblue" points="338.74,-203.5 348.74,-200 338.74,-196.5 338.74,-203.5"/>
</g>
<!-- Node5 -->
<g id="node5" class="node">
<title>Node5</title>
<g id="a_node5"><a target="_blank" xlink:href="http://en.cppreference.com/w/cpp/container/vector/size.html#" xlink:title=" ">
<polygon fill="white" stroke="black" points="353,-152.5 353,-171.5 440,-171.5 440,-152.5 353,-152.5"/>
<text text-anchor="middle" x="396.5" y="-159.5" font-family="Helvetica,sans-Serif" font-size="10.00">std::vector::size</text>
</a>
</g>
</g>
<!-- Node3&#45;&gt;Node5 -->
<g id="edge4" class="edge">
<title>Node3&#45;&gt;Node5</title>
<path fill="none" stroke="midnightblue" d="M302.79,-190.41C318.5,-185.6 337.74,-179.7 354.61,-174.53"/>
<polygon fill="midnightblue" stroke="midnightblue" points="355.68,-177.86 364.22,-171.59 353.63,-171.17 355.68,-177.86"/>
</g>
<!-- Node6&#45;&gt;Node5 -->
<g id="edge6" class="edge">
<title>Node6&#45;&gt;Node5</title>
<path fill="none" stroke="midnightblue" d="M313.14,-162C322.64,-162 332.86,-162 342.76,-162"/>
<polygon fill="midnightblue" stroke="midnightblue" points="342.92,-165.5 352.92,-162 342.92,-158.5 342.92,-165.5"/>
</g>
<!-- Node8 -->
<g id="node8" class="node">
<title>Node8</title>
<g id="a_node8"><a xlink:href="../../d9/dab/bloom__filter_8cpp.html#a574dd0ecfa8c7278f6d6f7da1db5c485" target="_top" xlink:title="Hash function for test">
<polygon fill="white" stroke="black" points="241,-114.5 241,-133.5 300,-133.5 300,-114.5 241,-114.5"/>
<text text-anchor="middle" x="270.5" y="-121.5" font-family="Helvetica,sans-Serif" font-size="10.00">hashInt_1</text>
</a>
</g>
</g>
<!-- Node7&#45;&gt;Node8 -->
<g id="edge8" class="edge">
<title>Node7&#45;&gt;Node8</title>
<path fill="none" stroke="midnightblue" d="M185.23,-112.18C200.42,-114.31 216.8,-116.61 231.04,-118.61"/>
<polygon fill="midnightblue" stroke="midnightblue" points="230.6,-122.08 240.99,-120 231.57,-115.15 230.6,-122.08"/>
</g>
<!-- Node9 -->
<g id="node9" class="node">
<title>Node9</title>
<g id="a_node9"><a xlink:href="../../d9/dab/bloom__filter_8cpp.html#aa4c5cbd8de1820c08bcdd87c3a6543cd" target="_top" xlink:title="Hash function for test">
<polygon fill="white" stroke="black" points="241,-76.5 241,-95.5 300,-95.5 300,-76.5 241,-76.5"/>
<text text-anchor="middle" x="270.5" y="-83.5" font-family="Helvetica,sans-Serif" font-size="10.00">hashInt_2</text>
</a>
</g>
</g>
<!-- Node7&#45;&gt;Node9 -->
<g id="edge9" class="edge">
<title>Node7&#45;&gt;Node9</title>
<path fill="none" stroke="midnightblue" d="M185.23,-97.82C200.42,-95.69 216.8,-93.39 231.04,-91.39"/>
<polygon fill="midnightblue" stroke="midnightblue" points="231.57,-94.85 240.99,-90 230.6,-87.92 231.57,-94.85"/>
</g>
<!-- Node11 -->
<g id="node11" class="node">
<title>Node11</title>
<g id="a_node11"><a xlink:href="../../d9/dab/bloom__filter_8cpp.html#a8acf02700cd197c9d40927d8d8106e0f" target="_top" xlink:title="Function djb2, to get hash for string">
<polygon fill="white" stroke="black" points="239.5,-38.5 239.5,-57.5 301.5,-57.5 301.5,-38.5 239.5,-38.5"/>
<text text-anchor="middle" x="270.5" y="-45.5" font-family="Helvetica,sans-Serif" font-size="10.00">hashDJB2</text>
</a>
</g>
</g>
<!-- Node10&#45;&gt;Node11 -->
<g id="edge11" class="edge">
<title>Node10&#45;&gt;Node11</title>
<path fill="none" stroke="midnightblue" d="M192.25,-48C204.66,-48 217.51,-48 229.08,-48"/>
<polygon fill="midnightblue" stroke="midnightblue" points="229.29,-51.5 239.29,-48 229.29,-44.5 229.29,-51.5"/>
</g>
<!-- Node12 -->
<g id="node12" class="node">
<title>Node12</title>
<g id="a_node12"><a xlink:href="../../d9/dab/bloom__filter_8cpp.html#ab0bb73bb0fd4cc21c5451acf5339ab47" target="_top" xlink:title="Hash function, to get hash for string">
<polygon fill="white" stroke="black" points="245.5,-0.5 245.5,-19.5 295.5,-19.5 295.5,-0.5 245.5,-0.5"/>
<text text-anchor="middle" x="270.5" y="-7.5" font-family="Helvetica,sans-Serif" font-size="10.00">hashStr</text>
</a>
</g>
</g>
<!-- Node10&#45;&gt;Node12 -->
<g id="edge12" class="edge">
<title>Node10&#45;&gt;Node12</title>
<path fill="none" stroke="midnightblue" d="M168.19,-38.41C188.72,-32.66 214.73,-25.36 235.27,-19.6"/>
<polygon fill="midnightblue" stroke="midnightblue" points="236.46,-22.9 245.15,-16.83 234.57,-16.16 236.46,-22.9"/>
</g>
</g>
</svg>
