<?xml version="1.0" encoding="UTF-8" standalone="no"?>
<!DOCTYPE svg PUBLIC "-//W3C//DTD SVG 1.1//EN"
 "http://www.w3.org/Graphics/SVG/1.1/DTD/svg11.dtd">
<!-- Generated by graphviz version 5.0.1 (20220820.1526)
 -->
<!-- Title: test_bitset Pages: 1 -->
<svg width="322pt" height="66pt"
 viewBox="0.00 0.00 322.00 66.00" xmlns="http://www.w3.org/2000/svg" xmlns:xlink="http://www.w3.org/1999/xlink">
<g id="graph0" class="graph" transform="scale(1 1) rotate(0) translate(4 62)">
<title>test_bitset</title>
<polygon fill="white" stroke="none" points="-4,4 -4,-62 318,-62 318,4 -4,4"/>
<!-- Node1 -->
<g id="node1" class="node">
<title>Node1</title>
<g id="a_node1"><a xlink:title="Test for bitset.">
<polygon fill="#bfbfbf" stroke="black" points="0,-19.5 0,-38.5 62,-38.5 62,-19.5 0,-19.5"/>
<text text-anchor="middle" x="31" y="-26.5" font-family="Helvetica,sans-Serif" font-size="10.00">test_bitset</text>
</a>
</g>
</g>
<!-- Node2 -->
<g id="node2" class="node">
<title>Node2</title>
<g id="a_node2"><a xlink:href="../../d6/d09/class_bitset.html#a60e5462233fa5852f1e4e4593d41a601" target="_top" xlink:title="Turn bit on position x to 1s.">
<polygon fill="white" stroke="black" points="108.5,-38.5 108.5,-57.5 172.5,-57.5 172.5,-38.5 108.5,-38.5"/>
<text text-anchor="middle" x="140.5" y="-45.5" font-family="Helvetica,sans-Serif" font-size="10.00">Bitset::add</text>
</a>
</g>
</g>
<!-- Node1&#45;&gt;Node2 -->
<g id="edge1" class="edge">
<title>Node1&#45;&gt;Node2</title>
<path fill="none" stroke="midnightblue" d="M62.23,-34.34C73.49,-36.33 86.46,-38.62 98.52,-40.76"/>
<polygon fill="midnightblue" stroke="midnightblue" points="97.92,-44.2 108.37,-42.5 99.14,-37.31 97.92,-44.2"/>
</g>
<!-- Node5 -->
<g id="node5" class="node">
<title>Node5</title>
<g id="a_node5"><a xlink:href="../../d6/d09/class_bitset.html#a0bfb11045c04611233dc6e3b42484a19" target="_top" xlink:title="Doest bitset contains element x.">
<polygon fill="white" stroke="black" points="98,-0.5 98,-19.5 183,-19.5 183,-0.5 98,-0.5"/>
<text text-anchor="middle" x="140.5" y="-7.5" font-family="Helvetica,sans-Serif" font-size="10.00">Bitset::contains</text>
</a>
</g>
</g>
<!-- Node1&#45;&gt;Node5 -->
<g id="edge4" class="edge">
<title>Node1&#45;&gt;Node5</title>
<path fill="none" stroke="midnightblue" d="M62.23,-23.66C70.26,-22.24 79.17,-20.66 87.99,-19.1"/>
<polygon fill="midnightblue" stroke="midnightblue" points="88.63,-22.55 97.87,-17.36 87.41,-15.65 88.63,-22.55"/>
</g>
<!-- Node3 -->
<g id="node3" class="node">
<title>Node3</title>
<g id="a_node3"><a target="_blank" xlink:href="http://en.cppreference.com/w/cpp/container/vector/resize.html#" xlink:title=" ">
<polygon fill="white" stroke="black" points="219,-38.5 219,-57.5 314,-57.5 314,-38.5 219,-38.5"/>
<text text-anchor="middle" x="266.5" y="-45.5" font-family="Helvetica,sans-Serif" font-size="10.00">std::vector::resize</text>
</a>
</g>
</g>
<!-- Node2&#45;&gt;Node3 -->
<g id="edge2" class="edge">
<title>Node2&#45;&gt;Node3</title>
<path fill="none" stroke="midnightblue" d="M172.79,-48C183.66,-48 196.22,-48 208.52,-48"/>
<polygon fill="midnightblue" stroke="midnightblue" points="208.74,-51.5 218.74,-48 208.74,-44.5 208.74,-51.5"/>
</g>
<!-- Node4 -->
<g id="node4" class="node">
<title>Node4</title>
<g id="a_node4"><a target="_blank" xlink:href="http://en.cppreference.com/w/cpp/container/vector/size.html#" xlink:title=" ">
<polygon fill="white" stroke="black" points="223,-0.5 223,-19.5 310,-19.5 310,-0.5 223,-0.5"/>
<text text-anchor="middle" x="266.5" y="-7.5" font-family="Helvetica,sans-Serif" font-size="10.00">std::vector::size</text>
</a>
</g>
</g>
<!-- Node2&#45;&gt;Node4 -->
<g id="edge3" class="edge">
<title>Node2&#45;&gt;Node4</title>
<path fill="none" stroke="midnightblue" d="M172.79,-38.41C188.5,-33.6 207.74,-27.7 224.61,-22.53"/>
<polygon fill="midnightblue" stroke="midnightblue" points="225.68,-25.86 234.22,-19.59 223.63,-19.17 225.68,-25.86"/>
</g>
<!-- Node5&#45;&gt;Node4 -->
<g id="edge5" class="edge">
<title>Node5&#45;&gt;Node4</title>
<path fill="none" stroke="midnightblue" d="M183.14,-10C192.64,-10 202.86,-10 212.76,-10"/>
<polygon fill="midnightblue" stroke="midnightblue" points="212.92,-13.5 222.92,-10 212.92,-6.5 212.92,-13.5"/>
</g>
</g>
</svg>
