<?xml version="1.0" encoding="UTF-8" standalone="no"?>
<!DOCTYPE svg PUBLIC "-//W3C//DTD SVG 1.1//EN"
 "http://www.w3.org/Graphics/SVG/1.1/DTD/svg11.dtd">
<!-- Generated by graphviz version 5.0.1 (20220820.1526)
 -->
<!-- Title: Bitset Pages: 1 -->
<svg width="215pt" height="159pt"
 viewBox="0.00 0.00 214.50 159.00" xmlns="http://www.w3.org/2000/svg" xmlns:xlink="http://www.w3.org/1999/xlink">
<g id="graph0" class="graph" transform="scale(1 1) rotate(0) translate(4 155)">
<title>Bitset</title>
<!-- Node1 -->
<g id="node1" class="node">
<title>Node1</title>
<g id="a_node1"><a xlink:title="Simple bitset implementation for bloom filter.">
<polygon fill="#999999" stroke="#666666" points="76,-19 34,-19 34,0 76,0 76,-19"/>
<text text-anchor="middle" x="55" y="-7" font-family="Helvetica,sans-Serif" font-size="10.00">Bitset</text>
</a>
</g>
</g>
<!-- Node2 -->
<g id="node2" class="node">
<title>Node2</title>
<g id="a_node2"><a target="_blank" xlink:href="http://en.cppreference.com/w/cpp/container/vector.html" xlink:title=" ">
<polygon fill="white" stroke="#666666" points="206.5,-85 79.5,-85 79.5,-66 206.5,-66 206.5,-85"/>
<text text-anchor="middle" x="143" y="-73" font-family="Helvetica,sans-Serif" font-size="10.00">std::vector&lt; std::size_t &gt;</text>
</a>
</g>
</g>
<!-- Node2&#45;&gt;Node1 -->
<g id="edge1" class="edge">
<title>Node2&#45;&gt;Node1</title>
<path fill="none" stroke="#9a32cd" stroke-dasharray="5,2" d="M122.83,-59.83C105.57,-47.28 81.31,-29.63 66.96,-19.2"/>
<polygon fill="#9a32cd" stroke="#9a32cd" points="120.99,-62.82 131.13,-65.87 125.1,-57.16 120.99,-62.82"/>
<text text-anchor="middle" x="115" y="-40" font-family="Helvetica,sans-Serif" font-size="10.00"> data</text>
</g>
<!-- Node3 -->
<g id="node3" class="node">
<title>Node3</title>
<g id="a_node3"><a target="_blank" xlink:href="http://en.cppreference.com/w/cpp/types/size_t.html" xlink:title=" ">
<polygon fill="white" stroke="#bfbfbf" points="62,-151 0,-151 0,-132 62,-132 62,-151"/>
<text text-anchor="middle" x="31" y="-139" font-family="Helvetica,sans-Serif" font-size="10.00">std::size_t</text>
</a>
</g>
</g>
<!-- Node3&#45;&gt;Node1 -->
<g id="edge3" class="edge">
<title>Node3&#45;&gt;Node1</title>
<path fill="none" stroke="#9a32cd" stroke-dasharray="5,2" d="M26.19,-121.87C23.03,-106.63 20.29,-84.63 25,-66 29.51,-48.16 41.02,-29.83 48.4,-19.34"/>
<polygon fill="#9a32cd" stroke="#9a32cd" points="22.78,-122.68 28.45,-131.63 29.6,-121.1 22.78,-122.68"/>
<text text-anchor="middle" x="48" y="-73" font-family="Helvetica,sans-Serif" font-size="10.00"> blockSize</text>
</g>
<!-- Node3&#45;&gt;Node2 -->
<g id="edge2" class="edge">
<title>Node3&#45;&gt;Node2</title>
<path fill="none" stroke="#9a32cd" stroke-dasharray="5,2" d="M54.87,-126.86C76.92,-114.26 109.02,-95.92 127.78,-85.2"/>
<polygon fill="#9a32cd" stroke="#9a32cd" points="53.05,-123.87 46.1,-131.87 56.52,-129.95 53.05,-123.87"/>
<text text-anchor="middle" x="114.5" y="-106" font-family="Helvetica,sans-Serif" font-size="10.00"> elements</text>
</g>
</g>
</svg>
