<?xml version="1.0" encoding="UTF-8" standalone="no"?>
<!DOCTYPE svg PUBLIC "-//W3C//DTD SVG 1.1//EN"
 "http://www.w3.org/Graphics/SVG/1.1/DTD/svg11.dtd">
<!-- Generated by graphviz version 3.0.0 (20220226.1711)
 -->
<!-- Title: Bitset Pages: 1 -->
<svg width="215pt" height="162pt"
 viewBox="0.00 0.00 214.50 162.00" xmlns="http://www.w3.org/2000/svg" xmlns:xlink="http://www.w3.org/1999/xlink">
<g id="graph0" class="graph" transform="scale(1 1) rotate(0) translate(4 158)">
<title>Bitset</title>
<polygon fill="white" stroke="transparent" points="-4,4 -4,-158 210.5,-158 210.5,4 -4,4"/>
<!-- Node1 -->
<g id="node1" class="node">
<title>Node1</title>
<g id="a_node1"><a xlink:title="Simple bitset implementation for bloom filter.">
<polygon fill="#bfbfbf" stroke="black" points="34,-0.5 34,-19.5 76,-19.5 76,-0.5 34,-0.5"/>
<text text-anchor="middle" x="55" y="-7.5" font-family="Helvetica,sans-Serif" font-size="10.00">Bitset</text>
</a>
</g>
</g>
<!-- Node2 -->
<g id="node2" class="node">
<title>Node2</title>
<g id="a_node2"><a target="_blank" xlink:href="http://en.cppreference.com/w/cpp/container/vector.html" xlink:title=" ">
<polygon fill="white" stroke="black" points="79.5,-67.5 79.5,-86.5 206.5,-86.5 206.5,-67.5 79.5,-67.5"/>
<text text-anchor="middle" x="143" y="-74.5" font-family="Helvetica,sans-Serif" font-size="10.00">std::vector&lt; std::size_t &gt;</text>
</a>
</g>
</g>
<!-- Node2&#45;&gt;Node1 -->
<g id="edge1" class="edge">
<title>Node2&#45;&gt;Node1</title>
<path fill="none" stroke="#9a32cd" stroke-dasharray="5,2" d="M122.78,-61.07C105.41,-48.24 80.97,-30.19 66.68,-19.63"/>
<polygon fill="#9a32cd" stroke="#9a32cd" points="121.01,-64.11 131.13,-67.23 125.17,-58.48 121.01,-64.11"/>
<text text-anchor="middle" x="115" y="-41" font-family="Helvetica,sans-Serif" font-size="10.00"> data</text>
</g>
<!-- Node3 -->
<g id="node3" class="node">
<title>Node3</title>
<g id="a_node3"><a target="_blank" xlink:href="http://en.cppreference.com/w/cpp/types/size_t.html" xlink:title=" ">
<polygon fill="white" stroke="#bfbfbf" points="0,-134.5 0,-153.5 62,-153.5 62,-134.5 0,-134.5"/>
<text text-anchor="middle" x="31" y="-141.5" font-family="Helvetica,sans-Serif" font-size="10.00">std::size_t</text>
</a>
</g>
</g>
<!-- Node3&#45;&gt;Node1 -->
<g id="edge3" class="edge">
<title>Node3&#45;&gt;Node1</title>
<path fill="none" stroke="#9a32cd" stroke-dasharray="5,2" d="M26.26,-124.5C23.05,-108.94 20.18,-86.21 25,-67 29.56,-48.81 41.3,-30.09 48.66,-19.56"/>
<polygon fill="#9a32cd" stroke="#9a32cd" points="22.89,-125.46 28.56,-134.42 29.71,-123.88 22.89,-125.46"/>
<text text-anchor="middle" x="48" y="-74.5" font-family="Helvetica,sans-Serif" font-size="10.00"> blockSize</text>
</g>
<!-- Node3&#45;&gt;Node2 -->
<g id="edge2" class="edge">
<title>Node3&#45;&gt;Node2</title>
<path fill="none" stroke="#9a32cd" stroke-dasharray="5,2" d="M54.92,-129.12C77.11,-116.24 109.44,-97.48 128.13,-86.63"/>
<polygon fill="#9a32cd" stroke="#9a32cd" points="53,-126.19 46.1,-134.23 56.51,-132.24 53,-126.19"/>
<text text-anchor="middle" x="114.5" y="-108" font-family="Helvetica,sans-Serif" font-size="10.00"> elements</text>
</g>
</g>
</svg>
