<?xml version="1.0" encoding="UTF-8" standalone="no"?>
<!DOCTYPE svg PUBLIC "-//W3C//DTD SVG 1.1//EN"
 "http://www.w3.org/Graphics/SVG/1.1/DTD/svg11.dtd">
<!-- Generated by graphviz version 3.0.0 (20220226.1711)
 -->
<!-- Title: BloomFilter&lt; T &gt; Pages: 1 -->
<svg width="331pt" height="251pt"
 viewBox="0.00 0.00 331.00 251.00" xmlns="http://www.w3.org/2000/svg" xmlns:xlink="http://www.w3.org/1999/xlink">
<g id="graph0" class="graph" transform="scale(1 1) rotate(0) translate(4 247)">
<title>BloomFilter&lt; T &gt;</title>
<polygon fill="white" stroke="transparent" points="-4,4 -4,-247 327,-247 327,4 -4,4"/>
<!-- Node1 -->
<g id="node1" class="node">
<title>Node1</title>
<g id="a_node1"><a xlink:title="Bloom filter template class.">
<polygon fill="#bfbfbf" stroke="black" points="162,-0.5 162,-19.5 252,-19.5 252,-0.5 162,-0.5"/>
<text text-anchor="middle" x="207" y="-7.5" font-family="Helvetica,sans-Serif" font-size="10.00">BloomFilter&lt; T &gt;</text>
</a>
</g>
</g>
<!-- Node2 -->
<g id="node2" class="node">
<title>Node2</title>
<g id="a_node2"><a xlink:href="../../d6/d09/class_bitset.html" target="_top" xlink:title="Simple bitset implementation for bloom filter.">
<polygon fill="white" stroke="black" points="122,-73 122,-92 164,-92 164,-73 122,-73"/>
<text text-anchor="middle" x="143" y="-80" font-family="Helvetica,sans-Serif" font-size="10.00">Bitset</text>
</a>
</g>
</g>
<!-- Node2&#45;&gt;Node1 -->
<g id="edge1" class="edge">
<title>Node2&#45;&gt;Node1</title>
<path fill="none" stroke="#9a32cd" stroke-dasharray="5,2" d="M157.71,-65.3C170.58,-51.12 188.79,-31.06 199.09,-19.72"/>
<polygon fill="#9a32cd" stroke="#9a32cd" points="154.98,-63.1 150.85,-72.86 160.16,-67.8 154.98,-63.1"/>
<text text-anchor="middle" x="189.5" y="-41" font-family="Helvetica,sans-Serif" font-size="10.00"> set</text>
</g>
<!-- Node3 -->
<g id="node3" class="node">
<title>Node3</title>
<g id="a_node3"><a target="_blank" xlink:href="http://en.cppreference.com/w/cpp/container/vector.html" xlink:title=" ">
<polygon fill="white" stroke="black" points="79.5,-151 79.5,-170 206.5,-170 206.5,-151 79.5,-151"/>
<text text-anchor="middle" x="143" y="-158" font-family="Helvetica,sans-Serif" font-size="10.00">std::vector&lt; std::size_t &gt;</text>
</a>
</g>
</g>
<!-- Node3&#45;&gt;Node2 -->
<g id="edge2" class="edge">
<title>Node3&#45;&gt;Node2</title>
<path fill="none" stroke="#9a32cd" stroke-dasharray="5,2" d="M143,-140.72C143,-125.2 143,-103.86 143,-92.12"/>
<polygon fill="#9a32cd" stroke="#9a32cd" points="139.5,-140.78 143,-150.78 146.5,-140.78 139.5,-140.78"/>
<text text-anchor="middle" x="154" y="-119" font-family="Helvetica,sans-Serif" font-size="10.00"> data</text>
</g>
<!-- Node4 -->
<g id="node4" class="node">
<title>Node4</title>
<g id="a_node4"><a target="_blank" xlink:href="http://en.cppreference.com/w/cpp/types/size_t.html" xlink:title=" ">
<polygon fill="white" stroke="#bfbfbf" points="0,-223.5 0,-242.5 62,-242.5 62,-223.5 0,-223.5"/>
<text text-anchor="middle" x="31" y="-230.5" font-family="Helvetica,sans-Serif" font-size="10.00">std::size_t</text>
</a>
</g>
</g>
<!-- Node4&#45;&gt;Node2 -->
<g id="edge4" class="edge">
<title>Node4&#45;&gt;Node2</title>
<path fill="none" stroke="#9a32cd" stroke-dasharray="5,2" d="M23.71,-213.94C17.44,-195.27 11.23,-165.98 24,-145 45.29,-110.04 93.55,-94.08 121.64,-87.52"/>
<polygon fill="#9a32cd" stroke="#9a32cd" points="20.43,-215.16 27.17,-223.33 26.99,-212.73 20.43,-215.16"/>
<text text-anchor="middle" x="47" y="-158" font-family="Helvetica,sans-Serif" font-size="10.00"> blockSize</text>
</g>
<!-- Node4&#45;&gt;Node3 -->
<g id="edge3" class="edge">
<title>Node4&#45;&gt;Node3</title>
<path fill="none" stroke="#9a32cd" stroke-dasharray="5,2" d="M53.35,-217.93C75.96,-203.7 110.2,-182.15 129.15,-170.22"/>
<polygon fill="#9a32cd" stroke="#9a32cd" points="51.33,-215.07 44.73,-223.36 55.06,-220.99 51.33,-215.07"/>
<text text-anchor="middle" x="112.5" y="-197" font-family="Helvetica,sans-Serif" font-size="10.00"> elements</text>
</g>
<!-- Node5 -->
<g id="node5" class="node">
<title>Node5</title>
<g id="a_node5"><a target="_blank" xlink:href="http://en.cppreference.com/w/cpp/container/vector.html" xlink:title=" ">
<polygon fill="white" stroke="black" points="197,-67.5 197,-97.5 323,-97.5 323,-67.5 197,-67.5"/>
<text text-anchor="start" x="205" y="-85.5" font-family="Helvetica,sans-Serif" font-size="10.00">std::vector&lt; std::function</text>
<text text-anchor="middle" x="260" y="-74.5" font-family="Helvetica,sans-Serif" font-size="10.00">&lt; std::size_t(T)&gt; &gt;</text>
</a>
</g>
</g>
<!-- Node5&#45;&gt;Node1 -->
<g id="edge5" class="edge">
<title>Node5&#45;&gt;Node1</title>
<path fill="none" stroke="#9a32cd" stroke-dasharray="5,2" d="M243.09,-59.01C233.11,-45.73 221.03,-29.66 213.69,-19.89"/>
<polygon fill="#9a32cd" stroke="#9a32cd" points="240.47,-61.34 249.27,-67.23 246.06,-57.14 240.47,-61.34"/>
<text text-anchor="middle" x="262" y="-41" font-family="Helvetica,sans-Serif" font-size="10.00"> hashFunks</text>
</g>
<!-- Node6 -->
<g id="node6" class="node">
<title>Node6</title>
<g id="a_node6"><a target="_blank" xlink:href="http://en.cppreference.com/w/cpp/utility/functional/function.html" xlink:title=" ">
<polygon fill="white" stroke="#bfbfbf" points="224.5,-145.5 224.5,-175.5 317.5,-175.5 317.5,-145.5 224.5,-145.5"/>
<text text-anchor="start" x="232.5" y="-163.5" font-family="Helvetica,sans-Serif" font-size="10.00">std::function&lt; std</text>
<text text-anchor="middle" x="271" y="-152.5" font-family="Helvetica,sans-Serif" font-size="10.00">::size_t(T)&gt;</text>
</a>
</g>
</g>
<!-- Node6&#45;&gt;Node5 -->
<g id="edge6" class="edge">
<title>Node6&#45;&gt;Node5</title>
<path fill="none" stroke="#9a32cd" stroke-dasharray="5,2" d="M267.47,-135.09C265.68,-122.76 263.58,-108.22 262.06,-97.73"/>
<polygon fill="#9a32cd" stroke="#9a32cd" points="264.03,-135.81 268.93,-145.2 270.96,-134.81 264.03,-135.81"/>
<text text-anchor="middle" x="288.5" y="-119" font-family="Helvetica,sans-Serif" font-size="10.00"> elements</text>
</g>
</g>
</svg>
