<?xml version="1.0" encoding="UTF-8" standalone="no"?>
<!DOCTYPE svg PUBLIC "-//W3C//DTD SVG 1.1//EN"
 "http://www.w3.org/Graphics/SVG/1.1/DTD/svg11.dtd">
<!-- Generated by graphviz version 5.0.1 (20220820.1526)
 -->
<!-- Title: BloomFilter&lt; T &gt; Pages: 1 -->
<svg width="331pt" height="247pt"
 viewBox="0.00 0.00 331.00 247.00" xmlns="http://www.w3.org/2000/svg" xmlns:xlink="http://www.w3.org/1999/xlink">
<g id="graph0" class="graph" transform="scale(1 1) rotate(0) translate(4 243)">
<title>BloomFilter&lt; T &gt;</title>
<!-- Node1 -->
<g id="node1" class="node">
<title>Node1</title>
<g id="a_node1"><a xlink:title="Bloom filter template class.">
<polygon fill="#999999" stroke="#666666" points="252,-19 162,-19 162,0 252,0 252,-19"/>
<text text-anchor="middle" x="207" y="-7" font-family="Helvetica,sans-Serif" font-size="10.00">BloomFilter&lt; T &gt;</text>
</a>
</g>
</g>
<!-- Node2 -->
<g id="node2" class="node">
<title>Node2</title>
<g id="a_node2"><a xlink:href="../../d6/d09/class_bitset.html" target="_top" xlink:title="Simple bitset implementation for bloom filter.">
<polygon fill="white" stroke="#666666" points="164,-90.5 122,-90.5 122,-71.5 164,-71.5 164,-90.5"/>
<text text-anchor="middle" x="143" y="-78.5" font-family="Helvetica,sans-Serif" font-size="10.00">Bitset</text>
</a>
</g>
</g>
<!-- Node2&#45;&gt;Node1 -->
<g id="edge1" class="edge">
<title>Node2&#45;&gt;Node1</title>
<path fill="none" stroke="#9a32cd" stroke-dasharray="5,2" d="M157.71,-64.03C170.58,-50.05 188.79,-30.28 199.09,-19.09"/>
<polygon fill="#9a32cd" stroke="#9a32cd" points="155.05,-61.75 150.85,-71.48 160.2,-66.49 155.05,-61.75"/>
<text text-anchor="middle" x="189.5" y="-40" font-family="Helvetica,sans-Serif" font-size="10.00"> set</text>
</g>
<!-- Node3 -->
<g id="node3" class="node">
<title>Node3</title>
<g id="a_node3"><a target="_blank" xlink:href="http://en.cppreference.com/w/cpp/container/vector.html" xlink:title=" ">
<polygon fill="white" stroke="#666666" points="206.5,-167.5 79.5,-167.5 79.5,-148.5 206.5,-148.5 206.5,-167.5"/>
<text text-anchor="middle" x="143" y="-155.5" font-family="Helvetica,sans-Serif" font-size="10.00">std::vector&lt; std::size_t &gt;</text>
</a>
</g>
</g>
<!-- Node3&#45;&gt;Node2 -->
<g id="edge2" class="edge">
<title>Node3&#45;&gt;Node2</title>
<path fill="none" stroke="#9a32cd" stroke-dasharray="5,2" d="M143,-138.02C143,-122.74 143,-101.98 143,-90.5"/>
<polygon fill="#9a32cd" stroke="#9a32cd" points="139.5,-138.4 143,-148.4 146.5,-138.4 139.5,-138.4"/>
<text text-anchor="middle" x="154" y="-117" font-family="Helvetica,sans-Serif" font-size="10.00"> data</text>
</g>
<!-- Node4 -->
<g id="node4" class="node">
<title>Node4</title>
<g id="a_node4"><a target="_blank" xlink:href="http://en.cppreference.com/w/cpp/types/size_t.html" xlink:title=" ">
<polygon fill="white" stroke="#bfbfbf" points="62,-239 0,-239 0,-220 62,-220 62,-239"/>
<text text-anchor="middle" x="31" y="-227" font-family="Helvetica,sans-Serif" font-size="10.00">std::size_t</text>
</a>
</g>
</g>
<!-- Node4&#45;&gt;Node2 -->
<g id="edge4" class="edge">
<title>Node4&#45;&gt;Node2</title>
<path fill="none" stroke="#9a32cd" stroke-dasharray="5,2" d="M23.6,-210.2C17.45,-191.83 11.54,-163.4 24,-143 45.31,-108.14 93.56,-92.38 121.64,-85.93"/>
<polygon fill="#9a32cd" stroke="#9a32cd" points="20.37,-211.54 27.11,-219.72 26.93,-209.12 20.37,-211.54"/>
<text text-anchor="middle" x="47" y="-155.5" font-family="Helvetica,sans-Serif" font-size="10.00"> blockSize</text>
</g>
<!-- Node4&#45;&gt;Node3 -->
<g id="edge3" class="edge">
<title>Node4&#45;&gt;Node3</title>
<path fill="none" stroke="#9a32cd" stroke-dasharray="5,2" d="M53.35,-214.63C75.96,-200.6 110.2,-179.35 129.15,-167.59"/>
<polygon fill="#9a32cd" stroke="#9a32cd" points="51.38,-211.73 44.73,-219.98 55.08,-217.68 51.38,-211.73"/>
<text text-anchor="middle" x="112.5" y="-194" font-family="Helvetica,sans-Serif" font-size="10.00"> elements</text>
</g>
<!-- Node5 -->
<g id="node5" class="node">
<title>Node5</title>
<g id="a_node5"><a target="_blank" xlink:href="http://en.cppreference.com/w/cpp/container/vector.html" xlink:title=" ">
<polygon fill="white" stroke="#666666" points="323,-96 197,-96 197,-66 323,-66 323,-96"/>
<text text-anchor="start" x="205" y="-84" font-family="Helvetica,sans-Serif" font-size="10.00">std::vector&lt; std::function</text>
<text text-anchor="middle" x="260" y="-73" font-family="Helvetica,sans-Serif" font-size="10.00">&lt; std::size_t(T)&gt; &gt;</text>
</a>
</g>
</g>
<!-- Node5&#45;&gt;Node1 -->
<g id="edge5" class="edge">
<title>Node5&#45;&gt;Node1</title>
<path fill="none" stroke="#9a32cd" stroke-dasharray="5,2" d="M243.09,-57.83C233.11,-44.74 221.03,-28.9 213.69,-19.27"/>
<polygon fill="#9a32cd" stroke="#9a32cd" points="240.43,-60.11 249.27,-65.94 245.99,-55.86 240.43,-60.11"/>
<text text-anchor="middle" x="262" y="-40" font-family="Helvetica,sans-Serif" font-size="10.00"> hashFunks</text>
</g>
<!-- Node6 -->
<g id="node6" class="node">
<title>Node6</title>
<g id="a_node6"><a target="_blank" xlink:href="http://en.cppreference.com/w/cpp/utility/functional/function.html" xlink:title=" ">
<polygon fill="white" stroke="#bfbfbf" points="317.5,-173 224.5,-173 224.5,-143 317.5,-143 317.5,-173"/>
<text text-anchor="start" x="232.5" y="-161" font-family="Helvetica,sans-Serif" font-size="10.00">std::function&lt; std</text>
<text text-anchor="middle" x="271" y="-150" font-family="Helvetica,sans-Serif" font-size="10.00">::size_t(T)&gt;</text>
</a>
</g>
</g>
<!-- Node6&#45;&gt;Node5 -->
<g id="edge6" class="edge">
<title>Node6&#45;&gt;Node5</title>
<path fill="none" stroke="#9a32cd" stroke-dasharray="5,2" d="M267.47,-132.91C265.68,-120.74 263.58,-106.4 262.06,-96.04"/>
<polygon fill="#9a32cd" stroke="#9a32cd" points="264.02,-133.51 268.93,-142.89 270.94,-132.49 264.02,-133.51"/>
<text text-anchor="middle" x="288.5" y="-117" font-family="Helvetica,sans-Serif" font-size="10.00"> elements</text>
</g>
</g>
</svg>
