<?xml version="1.0" encoding="UTF-8" standalone="no"?>
<!DOCTYPE svg PUBLIC "-//W3C//DTD SVG 1.1//EN"
 "http://www.w3.org/Graphics/SVG/1.1/DTD/svg11.dtd">
<!-- Generated by graphviz version 5.0.1 (20220820.1526)
 -->
<!-- Title: data_structures::test_bloom_filter_string Pages: 1 -->
<svg width="287pt" height="64pt"
 viewBox="0.00 0.00 287.00 64.00" xmlns="http://www.w3.org/2000/svg" xmlns:xlink="http://www.w3.org/1999/xlink">
<g id="graph0" class="graph" transform="scale(1 1) rotate(0) translate(4 60)">
<title>data_structures::test_bloom_filter_string</title>
<!-- Node1 -->
<g id="node1" class="node">
<title>Node1</title>
<g id="a_node1"><a xlink:title="Test for bloom filter with string as generic type.">
<polygon fill="#999999" stroke="#666666" points="107,-42.5 0,-42.5 0,-12.5 107,-12.5 107,-42.5"/>
<text text-anchor="start" x="8" y="-30.5" font-family="Helvetica,sans-Serif" font-size="10.00">data_structures::test</text>
<text text-anchor="middle" x="53.5" y="-19.5" font-family="Helvetica,sans-Serif" font-size="10.00">_bloom_filter_string</text>
</a>
</g>
</g>
<!-- Node2 -->
<g id="node2" class="node">
<title>Node2</title>
<g id="a_node2"><a xlink:href="../../d5/d3c/namespacedata__structures.html#a271c753baf6dc5ac6f19fa03c5873eb4" target="_top" xlink:title="Function djb2, to get hash for string">
<polygon fill="white" stroke="#666666" points="279,-56 143,-56 143,-37 279,-37 279,-56"/>
<text text-anchor="middle" x="211" y="-44" font-family="Helvetica,sans-Serif" font-size="10.00">data_structures::hashDJB2</text>
</a>
</g>
</g>
<!-- Node1&#45;&gt;Node2 -->
<g id="edge1" class="edge">
<title>Node1&#45;&gt;Node2</title>
<path fill="none" stroke="#63b8ff" d="M107.15,-33.93C115.38,-34.94 124.03,-36 132.68,-37.05"/>
<polygon fill="#63b8ff" stroke="#63b8ff" points="132.45,-40.55 142.8,-38.29 133.3,-33.6 132.45,-40.55"/>
</g>
<!-- Node3 -->
<g id="node3" class="node">
<title>Node3</title>
<g id="a_node3"><a xlink:href="../../d5/d3c/namespacedata__structures.html#a35eb2bc3edbb52f9c5f0b1e51046ef15" target="_top" xlink:title="Hash function, to get hash for string">
<polygon fill="white" stroke="#666666" points="273,-19 149,-19 149,0 273,0 273,-19"/>
<text text-anchor="middle" x="211" y="-7" font-family="Helvetica,sans-Serif" font-size="10.00">data_structures::hashStr</text>
</a>
</g>
</g>
<!-- Node1&#45;&gt;Node3 -->
<g id="edge2" class="edge">
<title>Node1&#45;&gt;Node3</title>
<path fill="none" stroke="#63b8ff" d="M107.15,-21.41C117.29,-20.23 128.08,-18.98 138.71,-17.75"/>
<polygon fill="#63b8ff" stroke="#63b8ff" points="139.29,-21.21 148.82,-16.58 138.49,-14.25 139.29,-21.21"/>
</g>
</g>
</svg>
